<?xml version="1.0" encoding="utf-8"?>
<!-- Generator: Adobe Illustrator 16.0.0, SVG Export Plug-In . SVG Version: 6.00 Build 0)  -->
<!DOCTYPE svg PUBLIC "-//W3C//DTD SVG 1.0//EN" "http://www.w3.org/TR/2001/REC-SVG-20010904/DTD/svg10.dtd" [
	<!ENTITY ns_extend "http://ns.adobe.com/Extensibility/1.0/">
	<!ENTITY ns_ai "http://ns.adobe.com/AdobeIllustrator/10.0/">
	<!ENTITY ns_graphs "http://ns.adobe.com/Graphs/1.0/">
	<!ENTITY ns_vars "http://ns.adobe.com/Variables/1.0/">
	<!ENTITY ns_imrep "http://ns.adobe.com/ImageReplacement/1.0/">
	<!ENTITY ns_sfw "http://ns.adobe.com/SaveForWeb/1.0/">
	<!ENTITY ns_custom "http://ns.adobe.com/GenericCustomNamespace/1.0/">
	<!ENTITY ns_adobe_xpath "http://ns.adobe.com/XPath/1.0/">
]>
<svg version="1.0" id="Layer_1" xmlns:x="&ns_extend;" xmlns:i="&ns_ai;" xmlns:graph="&ns_graphs;"
	 xmlns="http://www.w3.org/2000/svg" xmlns:xlink="http://www.w3.org/1999/xlink" x="0px" y="0px" width="288px" height="144px"
	 viewBox="0 0 288 144" enable-background="new 0 0 288 144" xml:space="preserve">
<metadata><?xpacket begin="﻿" id="W5M0MpCehiHzreSzNTczkc9d"?>
<x:xmpmeta xmlns:x="adobe:ns:meta/" x:xmptk="Adobe XMP Core 5.3-c011 66.145661, 2012/02/06-14:56:27        ">
   <rdf:RDF xmlns:rdf="http://www.w3.org/1999/02/22-rdf-syntax-ns#">
      <rdf:Description rdf:about=""
            xmlns:xmpMM="http://ns.adobe.com/xap/1.0/mm/"
            xmlns:stEvt="http://ns.adobe.com/xap/1.0/sType/ResourceEvent#"
            xmlns:stMfs="http://ns.adobe.com/xap/1.0/sType/ManifestItem#"
            xmlns:stRef="http://ns.adobe.com/xap/1.0/sType/ResourceRef#">
         <xmpMM:DerivedFrom rdf:parseType="Resource"/>
         <xmpMM:DocumentID>xmp.did:C0977516A777E81186EFE1E0967F254D</xmpMM:DocumentID>
         <xmpMM:InstanceID>xmp.iid:C0977516A777E81186EFE1E0967F254D</xmpMM:InstanceID>
         <xmpMM:OriginalDocumentID>xmp.did:C0977516A777E81186EFE1E0967F254D</xmpMM:OriginalDocumentID>
         <xmpMM:History>
            <rdf:Seq>
               <rdf:li rdf:parseType="Resource">
                  <stEvt:action>saved</stEvt:action>
                  <stEvt:instanceID>xmp.iid:C0977516A777E81186EFE1E0967F254D</stEvt:instanceID>
                  <stEvt:when>2018-06-24T05:06:55-07:00</stEvt:when>
                  <stEvt:softwareAgent>Adobe Illustrator CS6 (Windows)</stEvt:softwareAgent>
                  <stEvt:changed>/</stEvt:changed>
               </rdf:li>
            </rdf:Seq>
         </xmpMM:History>
         <xmpMM:Manifest>
            <rdf:Seq>
               <rdf:li rdf:parseType="Resource">
                  <stMfs:linkForm>EmbedByReference</stMfs:linkForm>
                  <stMfs:reference rdf:parseType="Resource">
                     <stRef:filePath>C:\Users\slow\Dropbox\RB16\rogo\graphi1.png</stRef:filePath>
                  </stMfs:reference>
               </rdf:li>
            </rdf:Seq>
         </xmpMM:Manifest>
      </rdf:Description>
      <rdf:Description rdf:about=""
            xmlns:dc="http://purl.org/dc/elements/1.1/">
         <dc:format>image/svg+xml</dc:format>
      </rdf:Description>
      <rdf:Description rdf:about=""
            xmlns:xmp="http://ns.adobe.com/xap/1.0/"
            xmlns:xmpGImg="http://ns.adobe.com/xap/1.0/g/img/">
         <xmp:CreatorTool>Adobe Illustrator CS6 (Windows)</xmp:CreatorTool>
         <xmp:CreateDate>2018-06-24T05:06:54-07:00</xmp:CreateDate>
         <xmp:Thumbnails>
            <rdf:Alt>
               <rdf:li rdf:parseType="Resource">
                  <xmpGImg:width>192</xmpGImg:width>
                  <xmpGImg:height>256</xmpGImg:height>
                  <xmpGImg:format>JPEG</xmpGImg:format>
                  <xmpGImg:image>/9j/4AAQSkZJRgABAgEASABIAAD/7QAsUGhvdG9zaG9wIDMuMAA4QklNA+0AAAAAABAASAAAAAEA&#xA;AQBIAAAAAQAB/+4ADkFkb2JlAGTAAAAAAf/bAIQABgQEBAUEBgUFBgkGBQYJCwgGBggLDAoKCwoK&#xA;DBAMDAwMDAwQDA4PEA8ODBMTFBQTExwbGxscHx8fHx8fHx8fHwEHBwcNDA0YEBAYGhURFRofHx8f&#xA;Hx8fHx8fHx8fHx8fHx8fHx8fHx8fHx8fHx8fHx8fHx8fHx8fHx8fHx8fHx8f/8AAEQgBAADAAwER&#xA;AAIRAQMRAf/EAaIAAAAHAQEBAQEAAAAAAAAAAAQFAwIGAQAHCAkKCwEAAgIDAQEBAQEAAAAAAAAA&#xA;AQACAwQFBgcICQoLEAACAQMDAgQCBgcDBAIGAnMBAgMRBAAFIRIxQVEGE2EicYEUMpGhBxWxQiPB&#xA;UtHhMxZi8CRygvElQzRTkqKyY3PCNUQnk6OzNhdUZHTD0uIIJoMJChgZhJRFRqS0VtNVKBry4/PE&#xA;1OT0ZXWFlaW1xdXl9WZ2hpamtsbW5vY3R1dnd4eXp7fH1+f3OEhYaHiImKi4yNjo+Ck5SVlpeYmZ&#xA;qbnJ2en5KjpKWmp6ipqqusra6voRAAICAQIDBQUEBQYECAMDbQEAAhEDBCESMUEFURNhIgZxgZEy&#xA;obHwFMHR4SNCFVJicvEzJDRDghaSUyWiY7LCB3PSNeJEgxdUkwgJChgZJjZFGidkdFU38qOzwygp&#xA;0+PzhJSktMTU5PRldYWVpbXF1eX1RlZmdoaWprbG1ub2R1dnd4eXp7fH1+f3OEhYaHiImKi4yNjo&#xA;+DlJWWl5iZmpucnZ6fkqOkpaanqKmqq6ytrq+v/aAAwDAQACEQMRAD8A9U4q7FXYq7FXYq7FXYq7&#xA;FXYq7FXYq7FXYq7FXYq7FXYq7FXYq7FXYq7FXYq7FXYq7FXYq7FXYq7FXYq7FXYq7FXYq7FXYq7F&#xA;XYq7FXYq7FXYq7FXYq7FXYq7FXYq7FXYq7FXYq7FXYq7FXYq7FXYq7FXYq7FXYq7FXYq7FXYq7FX&#xA;Yq7FXYq7FXYq7FXYq7FXYq7FXYqlPmPzd5Y8s2YvPMGqW2l27bI9zKsZcjsik8nPsoxVIvLf5y/l&#xA;d5kvFsdG8yWdxeOeMVs7GCRz4RpMI2c/6tcVZnirsVdirsVdirsVdirsVdirsVdirsVdirsVdirs&#xA;VdirsVdirsVdiryz/nIf82rr8ufJkdzpio2u6pKbXTmkHJIqKWknKnZuAoAD+0RWoqMVfB+veYdd&#xA;8walJqet38+o38v27i4cyNT+UV+yo7KNhiqXgkGo2IxV9Q/84/f85Qi0SLyt+YF4zW4omm6/MSxQ&#xA;dBFdudyv8sh6ftbbhV9XW9xb3MEdxbypNBKoeKaNg6Mp3DKwqCDiqpirsVQcutaPFcfVpb+3jud/&#xA;3LSoH26/CTXFVl95g0HT7Q3l/qVraWgBY3E80ccdBsTyYgYq8zuf+cqfyTt9QazOtySKp4tdxWtw&#xA;8IINDRgnJh7qpHhir0Hyx508p+arQ3fl3VrbVIUp6n1eQMyE9BIn20PswGKp1irsVdirsVdirsVd&#xA;irsVdirsVdirsVdir5W/5zi1K1P+EtMVgbpfrlzIld1jb0kQkf5RVqfLFXypirsVdirJfKv5leff&#xA;Ki8PL2u3mnwE1NtHITASe5hflHX344qz3Sf+csvzrsrxJ7rVbfVIV+1aXVnbJGw+dskEn/DYqnH5&#xA;p/8AOV3mLzf5atdH0S1k8utKD+mZoZuby9AscMgCMkZ3Ldz0rStVXgxJJJJqTuSetcVaxV2Ko/Q9&#xA;e1rQdSi1PRr2bT7+A1iubdyjjxFR1B7g7HFX0/8AlR/zmIkhh0n8w4gjGiJr9qnwk9K3MC9Pdox/&#xA;sO+Kvp7T9QsNRsob7T7iO7srhQ8FzA6yRup6FWUkEYqiMVdirsVdirsVdirsVdirsVdiqldyzxWs&#xA;skEJuJ0QtFAGVC7AbLyaiip7nFXxN+dv5Wfn5rvmC/8AOGv6H9Zg48Y49OmS6S2toxVI0jVvW4qC&#xA;SzcN2q3fFXhOKuxV2KuxV2KuxV2KuxV2KuxV2KvSvyc/PLzP+W+pKsLNf+XZnrfaO70U12MkJNfT&#xA;k9xs3Q9qKvvbyv5m0bzPoNnrui3AudNvoxJBKNj4MrD9llYFWHY4qmmKuxV2KuxV2KuxV2KuxV2K&#xA;uxV2Kvz3/wCci/Jknlb819ZhjtDa6ZqMn1/TiBSN0nAeT0+1FlLrTtTwpirzPFXYq7FXYq7FXYq7&#xA;FXYq7FXYq7FX1B/zhT52uU1PWfJc78rWaL9KWKk/YljZIplH+urof9jir60xV2KuxV2KuxV2KuxV&#xA;2KuxV2KuxVIfOXkXyn5z0o6Z5k06LULUEtEXqskTEU5xSKQ6N/qn54q+Ofz6/wCcbrv8v4D5g0Ke&#xA;TUPK7OEn9UA3FozkKnqFQA6MxoHAFDQHsSq8PxV2KuxV2KuxV2KuxV2KuxV2Kvb/APnD22ml/OFZ&#xA;I1qtvp11JKfBSUjr/wAE4GKvuXFXYq7FXYq7FXYq7FXYq7FXYq7FXYql/mHRLHXtC1DRb9ednqNv&#xA;JazigPwyqVJFe4rUe+KvzF1TT59N1O7064FLiymkt5h/lxOUb8RiqFxV2KuxV2KuxV2KuxV2KuxV&#xA;9j/84bfl5caV5bv/ADjfxGOfXOMGmqwo31SFiWk8aSydPZAehxV9G4q7FXYq7FXYq7FXYqg9X1jS&#xA;dG06bUtWvIbCwtxymurh1jjUVoKsxA3Ow8cVYv8Al/8Am/5F8/XepWvlu9a4m0tgJVkQxGSNthNE&#xA;G+JoydqkAjuBUVVZpirsVdiqhfX1nYWVxfXsy29naxvNczyHiiRxqWd2PYACuKvzI83avFrXmvWt&#xA;YiT04tSv7m8jSlOKzzNIBQeAbFUpxV2KuxV2KuxV2KuxVUggmnmSCCNpZpWCRxICzMzGgVVG5JxV&#xA;9A/kz/zin5i1y9g1fzxbyaRoUTCQabJVLu6oa8GT7UMZ/aLUbwG/IKvsu2tre1t4ra2iWG3gRY4Y&#xA;YwFREQcVVVGwAAoBiqpirsVdirsVdirsVdiqRedPJHlzznoh0XzBbm5sDNHP6au0Z5xNVd1I9wfY&#xA;4q+DvNn5jW+mfmtd+afy5s5PKscMnCK2UBQzLtL6kHxRqkhG8X2Rir0iy/5za87R2yJeaBp1xOoo&#xA;00bTRBvfgWkp9+Kpfd/85o/mlLIDb6fpFtGOiiC4cnb9otP+oDFUwtP+c2/O6RUvPL+mTTfzwtcR&#xA;LT/VZ5T/AMNirzv8yf8AnIL8xvP1s2n6ldR2Ojs3J9MsFaKJ6Gq+qzM8klKVozca70xV5rirsVdi&#xA;rsVdirsVdirsVZ1+S35gWvkL8wtP8wXlqt1ZIHt7scQ0kcUw4tLFXo6dfcVXvir9FbS7try1hu7W&#xA;RZra4jWWCZDVXjcBlZT4EGuKquKuxV2KuxV2KuxV2KuxV2KvjT/nJ38hdR0LUNU/MHSJEn0K9uBP&#xA;qVtQJLazXMgUsOzxvK/UbgtShG+KsN/Jn8h7/wDM7R9cuba6bTZtNeBbK6mjL2s7yBzJCxFGDKAj&#xA;clrSu43GKr9c/wCcWfzp0p24aMmpwr/u+xuIZAfkkjRy/wDCYqxS/wDyf/NSwBNz5S1ZVWoZ0s5p&#xA;EFNt2jVl7+OKsem0LW4JDFNp9zFIvVHhkVh9BGKsi8m/lH+Ynm+9jttF0S5eN2Ae+mjaG1jFdy8z&#xA;gJt1oKsewOKvrCP/AJxZ8vx/lBN5OSeP/EM7pfSa4U63sYIRafaEIVjHTwJalcVfGfmfy1rPljXr&#xA;zQtatzbalYSencREgjoGVlI2ZWUhlPcHFUrxV2KuxV2KuxVfDDNPNHDDG0s0rBIokBZmZjRVVRuS&#xA;T0GKv0o/KzQdR0D8ufLmjamf9PsbCCK5UmvBwgJjr/kV4/RirKcVdirsVdirsVdirsVdirsVS7zD&#xA;5d0XzHo1zout2iX2l3YUXFrJUK3BxIu6lSKOoIocVVNG0XSdE0yDS9ItIrHT7ZeEFrAoRFHyHcnc&#xA;nqTucVRuKuxV2KuxV2Kvlr/nNLyBG1vpfnqzipKjDTdVKjqrVe3kNP5SGQn3UYq+UMVdirsVdirs&#xA;VZr+SsQl/NzygpTnTVrRqUr9iUNX/Y0rir9H8VdirsVdirsVdirsVdirsVdirsVdirsVdirsVdir&#xA;sVef/n/pMOqfk35rt5V5CGxa7SgqQ9owuFP3x7+2KvzrxV2KuxV2KuxV9Hf84d/lncal5ll89Xsd&#xA;NO0fnb6dyG0t5KnF2Fe0Ubn/AGTCnTFX2NirsVdirsVdirsVdirsVdirsVdirsVdirsVdirsVdir&#xA;zD/nJXzLa6F+TmvGVgJ9TjXTbSM9Xe5PFwP9WIO/0Yq/PrFXYq7FXYqnXkvypqXm3zTpvlzTR/pe&#xA;pTLCrkErGv2pJWA/ZjQFj7DFX6SeUvK+k+VfLmn+X9Jj9Kw06IRRA05MeryOR1Z2JZj4nFU2xV2K&#xA;uxV2KuxV2KuxV2KuxV2KuxV2KuxV2KuxV2KuxV8I/wDOT35sP5186vpNhLXy95feS3tSp+Ga4rxn&#xA;n26iq8E/yRUfaOKvGcVdirsVdir6r/5wq8iRldY873UdXDfozTCQNtlkuHHzqig/6wxV9U4q7FXY&#xA;q7FXYq7FXYq7FXYq7FXYq7FXYq7FXYq7FXYqwL89fOEvlL8q9e1a2kMd80ItLF1NGE10whV1PjGH&#xA;L/7HFX50Yq7FXYq7FXYq/RH/AJx80KPRfyc8r26qFa5s1v5D3Y3pNwCf9jIBir0PFXYq7FXYq7FX&#xA;Yq7FXYq7FXYq7FXYq7FXYq7FXYq7FXgf/OaU0kf5U6cqNRZdat0kHiotblqf8EoxV8T4q7FXYq7F&#xA;W1VmYKoLMxoqjcknFX6b+Q7Wa08j+XbWeJoJrfTLOKWB1KsjJborIynoVIpTFU8xV2KuxV2KuxV2&#xA;KuxV2KuxV2KuxV2KuxV2KuxV2KuxV4x/zlxokmpfk3d3CLyOk3ltfEDrx5G3Y/QLj7sVfCWKuxV2&#xA;KuxV7X/ziPpHl3UfzaQ6uqSXFnZTXWkQyAFWu0ZAGAPVo4md1FOo5fs4q+6cVdirsVdirsVdirsV&#xA;dirsVdirsVdirsVdirsVdirsVdiqT+ctBTzD5S1nQnAI1OyntVr2aWMqrf7FiDir8xXR0dkdSrqS&#xA;GUihBHUEYqtxV2KuxVGaRq+paPqlrqmmXD2uoWUizW1xGaMjqagj+I74q/QX8j/zZtPzJ8nJqLKk&#xA;GtWTC31i0Q7LLSqyIDv6co3Xw3Wppir0PFXYq7FXYq7FXYq7FXYq7FXYq7FXYq7FXYq7FXYq7FXY&#xA;q/N785fL58v/AJp+aNL4enHHqE00CeENyfrEI/5FyrirDMVdirsVdirPPyY/NG//AC586W+rx8pd&#xA;LuKW+r2in+8t2O7KP54z8Sfd0JxV+huk6rp2r6Za6pps63VhexLPbXCGqvG4qpGKovFXYq7FXYq7&#xA;FXYq7FXYq7FXYq7FXYq7FXYq7FXYq7FXx9/zmn5KltPMuk+cIIz9U1OH6jeOBstzb1aMsfGSJqD/&#xA;AFDir5sxV2Ksh81+R9a8tWui3t7Hy0/X7GHUNOu1HwOsiKZI+/xxM3Fh8j0IxVj2KuxV9E/84rfn&#xA;ePL2pJ5I8wT00TUZf9xVzIfhtbqQ/wB2Sekczf8AAtv3JxV9l4q7FXYq7FXYq7FXYq7FXYq7FXYq&#xA;7FXYq7FXYq7FXYqxj8yfIemee/J2oeW9QPBbpQ1tcUq0Nwh5RSr/AKrdR3FR3xV+b2saVeaRq99p&#xA;N8oS90+4ltbpAagSwOY3FfZlOKoPFX2l5K8q6F+b3/ONOk6LIypqWmRNa2lyd2tb20qkfKn7LxFe&#xA;Q/lbxpir451fSdQ0jVLvStRha3v7GV4LmB+qyRsVYfeMVQeKuxV9zf8AOL/5xv518stoOsTc/Muh&#xA;oqtI5q9zafZSbfcuh+CT/Yn9rFXt2KuxV2KuxV2KuxV2KuxV2KuxV2KuxV2KuxV2KoHWtc0bQ9Pl&#xA;1LWL6DT7CH+8ubmRY0HgKsRuew6nFXzz55/5zR8vWRuLTydpUmqTqCsOpXhMFty/nEIHrOvseBxV&#xA;8k6rqd7qup3mqX8nrX1/PJc3UxABeWZy7tQbbsxOKoXFXvX/ADiL+Y9zoPnr/Ck5L6V5j+FFr/dX&#xA;kSFo3FezqCjeJ4+GKs//AOcu/wAnTfWn/KwtFgrd2iLHr8MYqXgUcY7mg3rEPhf/ACKHYKcVfI2K&#xA;uxVkHkPzpq/kvzXp/mTSm/0mxk5PCSQk0TfDJC9P2XUke3UbjFX6N+T/ADZo/m3y1YeYdIl9Wx1C&#xA;ISJX7SN0eNwOjxuCre4xVOcVdirsVdirsVdirsVdirsVdirsVdirsVdir5B/5yw/L780dT88fpm1&#xA;s7zWfLLQxJp8VmklwtowQLMrxRhiheQF+fGhqBXamKvnm48u+YLYgXGmXcJavESQSLWnWlVGKpfi&#xA;rsVek/8AOOVza2/52eVZLlWeNriSJQoJPqS28kcZ27CRlJ9sVfoTNDFNE8MyLJFIpSSNwGVlYUKs&#xA;DsQRir4W/wCciPyGvPIerya3osLS+T76SsTLVjZyuf7iTvwr/dsf9U79VXi2KuxV9C/84h/mjJon&#xA;mp/JeoTU0nXWLWPI/DFfKuwHh66rx/1guKvs/FXYq7FXYq7FXYq7FXYq7FXYq7FXYq7FXYq7FXYq&#xA;pT2trcACeFJgv2RIoalfCoxVLLjyb5QuQRc6Hp84J5ESWsL1bx+JTvirWleSvJukXrX2k6Dp2n3r&#xA;ij3VpaQQSkHsXjRWP34qmd9fWdhZzXt7PHbWdsjS3FxKwSNEUVZmZqAADFXyF+fX/OUaeY7G98p+&#xA;TouOi3KtBqGrTp8dwh2KQRsP3aH+ZviPYL3VfN2KuxVWs7y5sryC8tZDDdW0iTQSr9pJI2DKw9wR&#xA;XFX6deVNZfW/K+j608fovqdjbXjRHYobiFZCv0cqYqmmKuxV2KuxV2KuxV2KuxV2KuxV2KuxV2Ku&#xA;xV2KuxV2KuxV4H/zl7F58vfKOlaR5b068vtMvLiSTW2sopJmAhCG3jkWMM3B2Zm6UqoxV8jj8vPP&#xA;5NB5Z1Uk9B9Ruf8AmjFU4078kPze1BwkHlHVEJ73Fu9sNvecRjvirPvLn/OHP5qaiytq0ljocO3M&#xA;TTfWJgP8lLf1Iz9MgxV7Z5F/5xF/Lfy/JFd6083mS/jIYfWQIbQMDUEW6E1+UjsPbFXuKIiIqIoV&#xA;FACqBQADYAAYq3irsVdirsVdirsVdirsVdirsVdirsVdirsVdirsVdirsVdirsVdirsVdirsVdir&#xA;sVdirsVdirsVdirsVdirsVdirsVdirsVdirsVdirsVdirsVdirsVdirsVdirsVdirsVdirsVdirs&#xA;VdirsVdirsVdirsVdirsVdirsVdirsVdirsVdirsVdirsVdirsVdirsVdirsVdirsVdirsVdirsV&#xA;dirsVdirsVdirsVdirsVdirsVdirsVdir//Z</xmpGImg:image>
               </rdf:li>
            </rdf:Alt>
         </xmp:Thumbnails>
         <xmp:MetadataDate>2018-06-24T05:06:55-07:00</xmp:MetadataDate>
         <xmp:ModifyDate>2018-06-24T05:06:55-07:00</xmp:ModifyDate>
      </rdf:Description>
      <rdf:Description rdf:about=""
            xmlns:xmpTPg="http://ns.adobe.com/xap/1.0/t/pg/"
            xmlns:stDim="http://ns.adobe.com/xap/1.0/sType/Dimensions#"
            xmlns:xmpG="http://ns.adobe.com/xap/1.0/g/">
         <xmpTPg:MaxPageSize rdf:parseType="Resource">
            <stDim:w>4.000000</stDim:w>
            <stDim:h>2.000000</stDim:h>
            <stDim:unit>Inches</stDim:unit>
         </xmpTPg:MaxPageSize>
         <xmpTPg:NPages>1</xmpTPg:NPages>
         <xmpTPg:HasVisibleTransparency>False</xmpTPg:HasVisibleTransparency>
         <xmpTPg:HasVisibleOverprint>False</xmpTPg:HasVisibleOverprint>
         <xmpTPg:PlateNames>
            <rdf:Seq>
               <rdf:li>Black</rdf:li>
            </rdf:Seq>
         </xmpTPg:PlateNames>
         <xmpTPg:SwatchGroups>
            <rdf:Seq>
               <rdf:li rdf:parseType="Resource">
                  <xmpG:groupName>Default Swatch Group</xmpG:groupName>
                  <xmpG:groupType>0</xmpG:groupType>
               </rdf:li>
            </rdf:Seq>
         </xmpTPg:SwatchGroups>
      </rdf:Description>
   </rdf:RDF>
</x:xmpmeta>
                                                                                                    
                                                                                                    
                                                                                                    
                                                                                                    
                                                                                                    
                                                                                                    
                                                                                                    
                                                                                                    
                                                                                                    
                                                                                                    
                                                                                                    
                                                                                                    
                                                                                                    
                                                                                                    
                                                                                                    
                                                                                                    
                                                                                                    
                                                                                                    
                                                                                                    
                                                                                                    
                           
<?xpacket end="w"?>
	</metadata>
<g>
	<g>
		<path fill-rule="evenodd" clip-rule="evenodd" fill="none" d="M220.98,73.487c0,32.329-0.051,64.658,0.085,96.987
			c0.012,2.983-0.603,3.591-3.584,3.583c-47.994-0.118-95.988-0.117-143.982,0c-2.982,0.008-3.587-0.601-3.582-3.583
			c0.108-64.658,0.108-129.316,0-193.975c-0.005-2.982,0.6-3.59,3.582-3.583c47.994,0.117,95.988,0.117,143.982,0
			c2.981-0.008,3.596,0.6,3.584,3.583C220.93,8.828,220.98,41.158,220.98,73.487z M176.332,137.067
			c-2.295,2.599-6.183,3.85-8.118,7.275c-1.096,1.938-1.505,3.661,1.429,3.814c8.442,0.44,16.628-0.808,24.45-4.147
			c2.379-1.016,2.58-2.389,1.751-4.833c-2.032-5.991-5.93-10.708-9.16-15.926c-4.312-6.965-9.949-12.858-14.052-19.874
			c-2.188-3.741-8.305-6.661-1.919-11.861c0.608-0.494,0.236-2.229,0.27-3.391c0.222-7.933,3.414-14.814,7.679-21.263
			c1.935-2.923,3.724-5.764,3.368-9.495c-0.104-1.097-0.076-2.572,0.554-3.31c2.65-3.108,1.518-5.924-0.592-8.433
			c-2.055-2.443-1.417-3.354,1.299-4.408c8.765-3.402,15.458-17.973,4.989-27.516c-4.011-3.657-8.595-6.202-13.273-8.797
			c-3.42-1.896-7.622-3.25-10.341-1.613c-5.198,3.131-12.428-2.33-16.367,4.482c-0.406,0.702-1.794-0.031-2.719-0.483
			c-1.154-0.564-2.442-1.242-3.661-1.222c-5.274,0.088-9.455-1.683-13.175-5.609c-2.713-2.864-6.57-4.825-10.708-2.885
			c-3.156,1.48-7.114,2.998-6.919,7.363c0.175,3.932-0.775,7.072-4.326,9.859c4.566,0.221,8.215,0.455,8.667,5.812
			c0.127,1.504,2.397,3.371,4.099,4.087c3.884,1.639,5.959,3.959,7.137,8.258c1.69,6.165-0.042,10.506-6.445,11.85
			c-2.908,0.61-5.975-0.683-8.724-0.432c-5.263,0.48-10.33,2.202-13.73-3.812c-0.846-1.496-2.011,0.316-3.013,0.549
			c-0.919,0.214-2.15,1.239-1.569,2.103c1.24,1.843,1.493-0.495,2.248-0.715c0.453-0.132,1.306,0.842,1.871,1.424
			c0.641,0.66,0.111,1.401-0.421,1.559c-3.192,0.945-0.851,2.636-0.725,4.13c0.217,2.56,4.435,2.333,3.666,5.579
			c-0.113,0.479,1.126,1.051,2.018,0.382c1.853-1.39,4.094-2.602,1.566-5.7c4.503,3.317,9.541,3.35,13.987,3.801
			c6.035,0.612,13.111,2.642,17.688-4.212c0.343-0.513,1.39-2.146,1.929-0.114c0.602,2.267,2.898,3.191,3.771,4.877
			c3.613,6.981,5.894,14.23,0.775,21.641c-4.787,6.932-6.068,14.307-3.664,22.567c2.166,7.439,2.346,15.423,7.115,22.115
			c2.173,3.05,1.698,5.886-2.792,6.846c-1.541,0.329-2.899,1.465-4.371,2.169c-1.485,0.71-3.571,1.466-3.368,3.108
			c0.225,1.823,2.236,2.901,4.157,3.035c7.114,0.497,14.238,0.855,21.357,1.273c1.749,0.103,3.637-0.891,2.94-2.329
			c-1.186-2.45,0.829-4.853-0.703-7.183c-1.353-2.059-2.559-4.362-3.152-6.727c-0.574-2.291,0.225-4.821-0.775-7.191
			C164.866,120.968,168.55,130.378,176.332,137.067z"/>
		<path fill-rule="evenodd" clip-rule="evenodd" d="M176.332,137.067c-7.782-6.689-11.466-16.1-18.007-23.52
			c1,2.37,0.201,4.9,0.775,7.191c0.594,2.364,1.8,4.668,3.152,6.727c1.532,2.33-0.482,4.732,0.703,7.183
			c0.696,1.438-1.191,2.432-2.94,2.329c-7.119-0.418-14.243-0.776-21.357-1.273c-1.921-0.134-3.932-1.212-4.157-3.035
			c-0.203-1.643,1.883-2.398,3.368-3.108c1.472-0.704,2.831-1.84,4.371-2.169c4.49-0.96,4.965-3.796,2.792-6.846
			c-4.769-6.692-4.949-14.676-7.115-22.115c-2.404-8.261-1.123-15.636,3.664-22.567c5.119-7.411,2.838-14.66-0.775-21.641
			c-0.872-1.687-3.169-2.61-3.771-4.877c-0.539-2.032-1.586-0.398-1.929,0.114c-4.576,6.854-11.652,4.825-17.688,4.212
			c-4.446-0.451-9.484-0.484-13.987-3.801c2.528,3.098,0.287,4.31-1.566,5.7c-0.892,0.669-2.131,0.097-2.018-0.382
			c0.769-3.246-3.449-3.019-3.666-5.579c-0.126-1.494-2.467-3.185,0.725-4.13c0.533-0.157,1.062-0.898,0.421-1.559
			c-0.565-0.582-1.418-1.556-1.871-1.424c-0.755,0.221-1.007,2.558-2.248,0.715c-0.581-0.864,0.65-1.889,1.569-2.103
			c1.002-0.232,2.167-2.044,3.013-0.549c3.4,6.014,8.468,4.292,13.73,3.812c2.749-0.251,5.815,1.042,8.724,0.432
			c6.404-1.344,8.136-5.686,6.445-11.85c-1.178-4.298-3.253-6.619-7.137-8.258c-1.702-0.717-3.972-2.583-4.099-4.087
			c-0.452-5.356-4.101-5.591-8.667-5.812c3.551-2.788,4.501-5.927,4.326-9.859c-0.194-4.365,3.764-5.883,6.919-7.363
			c4.138-1.94,7.995,0.021,10.708,2.885c3.72,3.926,7.9,5.697,13.175,5.609c1.219-0.021,2.507,0.657,3.661,1.222
			c0.925,0.452,2.313,1.185,2.719,0.483c3.939-6.812,11.169-1.351,16.367-4.482c2.719-1.637,6.921-0.283,10.341,1.613
			c4.679,2.595,9.263,5.14,13.273,8.797c10.469,9.543,3.775,24.114-4.989,27.516c-2.716,1.054-3.354,1.964-1.299,4.408
			c2.109,2.508,3.242,5.324,0.592,8.433c-0.63,0.738-0.658,2.213-0.554,3.31c0.355,3.731-1.434,6.571-3.368,9.495
			c-4.265,6.449-7.457,13.331-7.679,21.263c-0.033,1.161,0.339,2.896-0.27,3.391c-6.386,5.2-0.269,8.12,1.919,11.861
			c4.103,7.016,9.74,12.909,14.052,19.874c3.23,5.218,7.128,9.935,9.16,15.926c0.829,2.444,0.628,3.817-1.751,4.833
			c-7.822,3.34-16.008,4.588-24.45,4.147c-2.934-0.153-2.524-1.877-1.429-3.814C170.149,140.917,174.037,139.666,176.332,137.067z"
			/>
	</g>
</g>
</svg>
