<?xml version="1.0" encoding="utf-8"?>
<!-- Generator: Adobe Illustrator 16.0.0, SVG Export Plug-In . SVG Version: 6.00 Build 0)  -->
<!DOCTYPE svg PUBLIC "-//W3C//DTD SVG 1.0//EN" "http://www.w3.org/TR/2001/REC-SVG-20010904/DTD/svg10.dtd" [
	<!ENTITY ns_extend "http://ns.adobe.com/Extensibility/1.0/">
	<!ENTITY ns_ai "http://ns.adobe.com/AdobeIllustrator/10.0/">
	<!ENTITY ns_graphs "http://ns.adobe.com/Graphs/1.0/">
	<!ENTITY ns_vars "http://ns.adobe.com/Variables/1.0/">
	<!ENTITY ns_imrep "http://ns.adobe.com/ImageReplacement/1.0/">
	<!ENTITY ns_sfw "http://ns.adobe.com/SaveForWeb/1.0/">
	<!ENTITY ns_custom "http://ns.adobe.com/GenericCustomNamespace/1.0/">
	<!ENTITY ns_adobe_xpath "http://ns.adobe.com/XPath/1.0/">
]>
<svg version="1.0" id="Layer_1" xmlns:x="&ns_extend;" xmlns:i="&ns_ai;" xmlns:graph="&ns_graphs;"
	 xmlns="http://www.w3.org/2000/svg" xmlns:xlink="http://www.w3.org/1999/xlink" x="0px" y="0px" width="288px" height="144px"
	 viewBox="0 0 288 144" enable-background="new 0 0 288 144" xml:space="preserve">
<metadata><?xpacket begin="﻿" id="W5M0MpCehiHzreSzNTczkc9d"?>
<x:xmpmeta xmlns:x="adobe:ns:meta/" x:xmptk="Adobe XMP Core 5.3-c011 66.145661, 2012/02/06-14:56:27        ">
   <rdf:RDF xmlns:rdf="http://www.w3.org/1999/02/22-rdf-syntax-ns#">
      <rdf:Description rdf:about=""
            xmlns:xmpMM="http://ns.adobe.com/xap/1.0/mm/"
            xmlns:stRef="http://ns.adobe.com/xap/1.0/sType/ResourceRef#"
            xmlns:stEvt="http://ns.adobe.com/xap/1.0/sType/ResourceEvent#"
            xmlns:stMfs="http://ns.adobe.com/xap/1.0/sType/ManifestItem#">
         <xmpMM:DerivedFrom rdf:parseType="Resource">
            <stRef:instanceID>xmp.iid:C0977516A777E81186EFE1E0967F254D</stRef:instanceID>
            <stRef:documentID>xmp.did:C0977516A777E81186EFE1E0967F254D</stRef:documentID>
            <stRef:originalDocumentID>xmp.did:C0977516A777E81186EFE1E0967F254D</stRef:originalDocumentID>
         </xmpMM:DerivedFrom>
         <xmpMM:DocumentID>xmp.did:C1977516A777E81186EFE1E0967F254D</xmpMM:DocumentID>
         <xmpMM:InstanceID>xmp.iid:C1977516A777E81186EFE1E0967F254D</xmpMM:InstanceID>
         <xmpMM:OriginalDocumentID>xmp.did:C0977516A777E81186EFE1E0967F254D</xmpMM:OriginalDocumentID>
         <xmpMM:History>
            <rdf:Seq>
               <rdf:li rdf:parseType="Resource">
                  <stEvt:action>saved</stEvt:action>
                  <stEvt:instanceID>xmp.iid:C0977516A777E81186EFE1E0967F254D</stEvt:instanceID>
                  <stEvt:when>2018-06-24T05:06:55-07:00</stEvt:when>
                  <stEvt:softwareAgent>Adobe Illustrator CS6 (Windows)</stEvt:softwareAgent>
                  <stEvt:changed>/</stEvt:changed>
               </rdf:li>
               <rdf:li rdf:parseType="Resource">
                  <stEvt:action>saved</stEvt:action>
                  <stEvt:instanceID>xmp.iid:C1977516A777E81186EFE1E0967F254D</stEvt:instanceID>
                  <stEvt:when>2018-06-24T05:10:22-07:00</stEvt:when>
                  <stEvt:softwareAgent>Adobe Illustrator CS6 (Windows)</stEvt:softwareAgent>
                  <stEvt:changed>/</stEvt:changed>
               </rdf:li>
            </rdf:Seq>
         </xmpMM:History>
         <xmpMM:Manifest>
            <rdf:Seq>
               <rdf:li rdf:parseType="Resource">
                  <stMfs:linkForm>EmbedByReference</stMfs:linkForm>
                  <stMfs:reference rdf:parseType="Resource">
                     <stRef:filePath>C:\Users\slow\Dropbox\RB16\rogo\graphi1.png</stRef:filePath>
                  </stMfs:reference>
               </rdf:li>
            </rdf:Seq>
         </xmpMM:Manifest>
      </rdf:Description>
      <rdf:Description rdf:about=""
            xmlns:dc="http://purl.org/dc/elements/1.1/">
         <dc:format>image/svg+xml</dc:format>
      </rdf:Description>
      <rdf:Description rdf:about=""
            xmlns:xmp="http://ns.adobe.com/xap/1.0/"
            xmlns:xmpGImg="http://ns.adobe.com/xap/1.0/g/img/">
         <xmp:CreatorTool>Adobe Illustrator CS6 (Windows)</xmp:CreatorTool>
         <xmp:CreateDate>2018-06-24T05:10:21-07:00</xmp:CreateDate>
         <xmp:MetadataDate>2018-06-24T05:10:22-07:00</xmp:MetadataDate>
         <xmp:ModifyDate>2018-06-24T05:10:22-07:00</xmp:ModifyDate>
         <xmp:Thumbnails>
            <rdf:Alt>
               <rdf:li rdf:parseType="Resource">
                  <xmpGImg:width>256</xmpGImg:width>
                  <xmpGImg:height>160</xmpGImg:height>
                  <xmpGImg:format>JPEG</xmpGImg:format>
                  <xmpGImg:image>/9j/4AAQSkZJRgABAgEASABIAAD/7QAsUGhvdG9zaG9wIDMuMAA4QklNA+0AAAAAABAASAAAAAEA&#xA;AQBIAAAAAQAB/+4ADkFkb2JlAGTAAAAAAf/bAIQABgQEBAUEBgUFBgkGBQYJCwgGBggLDAoKCwoK&#xA;DBAMDAwMDAwQDA4PEA8ODBMTFBQTExwbGxscHx8fHx8fHx8fHwEHBwcNDA0YEBAYGhURFRofHx8f&#xA;Hx8fHx8fHx8fHx8fHx8fHx8fHx8fHx8fHx8fHx8fHx8fHx8fHx8fHx8fHx8f/8AAEQgAoAEAAwER&#xA;AAIRAQMRAf/EAaIAAAAHAQEBAQEAAAAAAAAAAAQFAwIGAQAHCAkKCwEAAgIDAQEBAQEAAAAAAAAA&#xA;AQACAwQFBgcICQoLEAACAQMDAgQCBgcDBAIGAnMBAgMRBAAFIRIxQVEGE2EicYEUMpGhBxWxQiPB&#xA;UtHhMxZi8CRygvElQzRTkqKyY3PCNUQnk6OzNhdUZHTD0uIIJoMJChgZhJRFRqS0VtNVKBry4/PE&#xA;1OT0ZXWFlaW1xdXl9WZ2hpamtsbW5vY3R1dnd4eXp7fH1+f3OEhYaHiImKi4yNjo+Ck5SVlpeYmZ&#xA;qbnJ2en5KjpKWmp6ipqqusra6voRAAICAQIDBQUEBQYECAMDbQEAAhEDBCESMUEFURNhIgZxgZEy&#xA;obHwFMHR4SNCFVJicvEzJDRDghaSUyWiY7LCB3PSNeJEgxdUkwgJChgZJjZFGidkdFU38qOzwygp&#xA;0+PzhJSktMTU5PRldYWVpbXF1eX1RlZmdoaWprbG1ub2R1dnd4eXp7fH1+f3OEhYaHiImKi4yNjo&#xA;+DlJWWl5iZmpucnZ6fkqOkpaanqKmqq6ytrq+v/aAAwDAQACEQMRAD8A9U4q7FXYq7FXYq7FXYq7&#xA;FXYq7FXYq7FXYq7FXYq7FXYq7FXYq7FXYq7FXYq7FXYq7FXYq7FXYq7FXYq7FXYq7FXYq7FXYq7F&#xA;XYq7FXYq7FXYq7FXYq7FXYq7FXYq7FXYq7FXYq7FXYq7FXYq7FXYq7FXYq7FXYq7FXYq7FXYq7FX&#xA;Yq7FXYq7FXYq7FXYq7FXYq7FXYq7FXYq7FXYq7FXYq8A/Of/AJyqsfJur3Xlzy3YJqmt2Z9O8urk&#xA;stpBLQHhxQq8rCvxUZQPEmtFWE/l/wD85n6wdYitfPOn2x0udgrahp6SJJBXbm8bPIJEHcLRvCvT&#xA;FX1dYahY6jZQX1hcR3VlcoJLe4hYPG6MKhlZagg4qr4q7FUBqWv6FpbxR6nqVrYvOaQpczRwlz0o&#xA;odl5fRiqOR0kRZI2Do4DI6moIO4IIxVvFXYq7FXYq7FXYq7FXYq7FXYq7FXYq7FXYq7FXYq7FXYq&#xA;7FXYq7FXYq7FXYqpXl3a2VpNeXcqwWtujSzzyEKiIg5MzE9AAK4q/MvzvrNvrnnTX9atgRb6pqV3&#xA;eQg7EJcTvIta+zYqkmKsq8n/AJpfmD5OUp5b125sIC3M2oKy25Y9W9CUSRVPjxxV6FYf85e/nBb6&#xA;XdWVzPZX1xPGyQ6lLbLHcQswoHQQmOEla1AaM7/iq8xn8/eep7xr2bzFqT3bks05u5+dT1357dcV&#xA;Sm+1HUNQuWur+5lu7l/tzzu0sh+bOSTirNPy4/Ovz/5AuF/Q1+ZtNrWbSLqstq470QkGNv8AKjIP&#xA;jXFX2X+UP5+eUPzHgFtAf0Z5hjTlcaPOwLED7TwP8PqoO+wYdx3xV6birsVdirsVdirsVdirsVdi&#xA;rsVdirsVdirsVdirsVdirsVdirsVdirsVdiqC1nRNJ1vTpdN1e0jvtPnp61rOoeN+JDDkp2NCK74&#xA;q+RP+cq/yW8t+UbfS/MnlXTzY2FzI9rqdvGXeFJaBoXXkW4cwHBFabCm9cVfOeKuxV2KuxV2KuxV&#xA;FaZqeoaXqFvqOnXElpfWkiy21zExV0dTUMpGKv0a/KPzw3nf8u9G8ySqEu7uIpeoooouIHaKUqN6&#xA;KzoWUeBxVmGKuxV2KuxV2KuxV2KuxVh35m/mt5V/LnSrfUfMH1l1u5GitYLSL1ZHZV5MKsUjXb+Z&#xA;x+vFUj0H/nIXyBrXlH/FMC3sGnJqMOk3CTxIssM1wVCO4SR19P4wSVYn2xV6HqmraXpNm19ql3DY&#xA;2SFVe5uZFijUuwRQXchRVmAGKpdoHnTy7r+pa1pulXQnvPL9yLPVIgCPTlK12J6ioZa+KkdsVTW+&#xA;vrKws5r2+njtbO3QyT3EzCONEUVLO7EAAeJxV4zrv/OX35QaXdG3tn1DWArFWmsLdfTqKdDcyWxY&#xA;VNKgHp4Uqqy2H8+fyqNto893r0OntrlqL2yiuw0bCIsU/esA0cZDgr8T70NKjfFUp1z/AJyc/KHR&#xA;dcn0e91Kb6xbP6c80VtLJCD7OoPMf5Sgg9sVX+Yv+cl/yi0K4toZ9Ve6+twJdQy2cMk0fpSEhTzA&#xA;ArVTUdR0NDirMvKfn/yf5t02DUdA1SG9t7hmjjUHhL6iLzdGifi4ZVNSCOm/TFVe183aHc+ar7yt&#xA;FMf01p9tFeTwMpAMM5Kqyt0NCPi8KjFU5xV2KuxV2KqN7Y2V/aS2d9bx3VncKUntp0WSN0PVXRgV&#xA;YHwOKvjf/nKT8jNF8mi081eWIPquj305tr7TwSyQXDKXR4q14xuFYFa0U0psaBV884q7FXYq7FXY&#xA;q7FX3/8A84w6BdaN+TOiLdKY57/1r/g3ZLiQmI/7KIK304q9VxV2KuxV2KuxV2KuxV2KvN/+ci7e&#xA;3m/JjzOZoY5TFbLJF6iK/BxIoDryBowrsRuMVSrTfLGg/mV+RegaBp2sQgWFtpiPdWpW4WK6sIoi&#xA;8Mihl8KEVB3BxVhn/ORS65+Y/nrS/wAqPLcoWSxtptX1dmNIxKIj9WSQjp9oD/nqp7Yqt/5xF8s6&#xA;15Y8wfmDoetx+lq1p+hzdxcxJxeWO5l4l1JViBJuQSPAnFXsH5weSh50/LvV/L315dOa4RJI7uQ0&#xA;iV4JFmX1f+KyUo3h1xV5L+Sf5geUvK2u2P5caz5asdA8ysFhttW014ru3vnYUVnuFaSVXlpsGZvA&#xA;8dlxVinlGx/LCZPNv5k/m/cw32q3Gp3drbaLNIHlQW7BeEdurK7P/uta/CqrXYb4q8s8o6X5/wBc&#xA;1nzFe+QdFDWdnZyr9VuI7e4lttNuZDPBGv1oFppPTXgjBWcr07Yqj9H8ra/Jq3knTvIFxB5g1uTT&#xA;5tZ4zQwIltNNI8M0L/Wm9Nlt/QqFYU58mAPKmKvQPyf/ACeGq+VvMPmg6o1h+ZGi6g8sELItqunX&#xA;tnycx3C0EZjua/HQBQo9iMVZ1/zjjq+p+evPPnL8y722+qRXkdnpdrEpqgaGJWnRG7hSkbf7LFX0&#xA;DirsVYN+YH5yeTfIup6bp2tvN6+oPH6jQx847WCVzGtxcuSAkZZGA6k8TQbYqzaGaGeGOeCRZYZV&#xA;DxSoQysrCqsrDYgjocVX4q8F/wCcwfNmg2f5at5dmnR9Z1S4ge1tFIMixwyeo8zD9lfh4A9ydu+K&#xA;viXFXYq7FXYq7FX0J+TP/OKvmTXL6z1nzpAdL8vLwnWwZgLq6UjkqlRUwof2uVGpsAOoVfZ0MMUM&#xA;SQwoscUahI40AVVVRQKoGwAGKrsVdirsVdirsVdirsVdirzb88PydP5maHa2cOrS6Vd2BleGgZ7e&#xA;b1Ap9OeMMtRzjQhtyu9Aa4qm35Uflfof5d+WI9I0wM1xNwm1O5d2f1rn01R3WtAq/D8IAG3viqC/&#xA;L78rX8s+cvOPmm+vF1HUPMl56lrNSjw2Y+JYG2AqGPHbqFX5YqybTPKOjab5n1rzJaK6alr6Wial&#xA;VqxubFGjhYKfstwfid+w96qozXdE03XdGvdG1OL19P1CF7e6iqRySQUNCNwfAjFWB+S/+cd/yr8o&#xA;ayms6Xpjy6lDQ2s93K8/otv8UaMeAb/KIqO1MVVde/5x+/KnXvNbeZ9T0YTajI4luYxJItvNIP25&#xA;YVYKx8ezftA74qyHyr+Xnljytq+uapotubafzBLFPfRgj0g0KsqiJQBwX42NK9TtQYqxryf+Seje&#xA;V/zS17zvZSj0tXt/StdPCcVtnlkEl0V7Ud41ZaUpVhiqF8+/klN5h1vW9R0fWm0OPzLpf6N1yKGP&#xA;l60sUivb3BoyVIUGJx3Q0rucVTS3/JPyhF+X2leSQbiKy0meG9hvbdxFcm8hf1DcFqMOTsTXbYGg&#xA;pQUVTiT8uvLsnmTWtff1zc+YdPXTNVtvUpbywoCofgByEnA8ahunatTiqYeUfLFj5W8t6f5esJZ5&#xA;7LTYvRt5LlxJLwBJAZlVB8NaCg6Yq8z/AOcpvKfm7zD+WzReWhPO8FxHLqenW4Ba5tUqwBUfE/pS&#xA;hXCivjSoxV8ieTdM/NvWtE1D/CMuq3em6UYxe2Wn3EvwfWA5Tjbo4Z+XpNXgp9+oxVK5NS/MLQpp&#xA;GkutW0qZifVLSXNuxJNDyqVPUYqkV1dXV3cPc3Uz3FxKeUk0rF3Y+LMxJOKvSvL/APzj1+YWteQd&#xA;R83w2EsaWvB7DTnjIuLyLczSRIaNRFoV2+Pfj7qvMSCDQ7EYq1irsVdir72/5xX8yeYNd/KOzk1r&#xA;k7WFxLY2Ny/2prWBU9Nie/As0Vf8jFXr2KuxV2KvnnVP+cu4tN816hpE/knUhY6Q7DVLkyKLqCJJ&#xA;BH6r2vp8ApZ0A5TgfEN9xVVen/OZHli+umh0TyrrOoqih24pEJAK0JKRPPQe9cVe0eSvNCeafK9h&#xA;r6WVxpwvkZjZXiGOeMo7RkMp90qD3FDiqY2eraZe3F3bWl1FPcafIIb2GNgzwyMgkCyKN1JRgd8V&#xA;SfQ/O+mav5s8yeWIo5ItR8tPaC6504yJewCeN46Hp1Ujt9OKpRN+dX5eW+j69q9zqJgsvLt/JpWo&#xA;M8bFjdRmnCFV5epz/ZI960AxVd+V35v+VPzJtdRuPL6XUQ0yVYbiO8jSNiJASki8HlBVuLdSDtuM&#xA;VZvirxTzb/zlr+WOiXkmn6cl7r1/HIYitnEEiEisFKmSYxk96cFapH04qldr/wA5YPb3CXXmXyHr&#xA;Gh+WZpfq8GuMHkUyk/Cro8MCD4VZmCSswpsDir1Xzh+ZnlHyjdaHb63dGE+YLg21lIACi0XkZZWJ&#xA;HGMFlUtvQsO1SFXlur/85b6JNqsumeSPLGpebbiJgokgDQxyVNOUYWO4mI8OUa1xVlmi/n/5XXyw&#xA;2reeIX8k6nHLJFJoOolzeEIquskUJjjnkR1cUb0gK1GKoDy1/wA5L+VPNXnGz8u+W9I1XUoLmT05&#xA;9WWDjBDUEh2WrOE/mLBaYq9fxVgzfm95bj/NX/lW8ySRaq9stxDdMV9F5GT1PQG/Ln6fxDbfp4VV&#xA;ZziryTU/+covyn0vzVeeXtQu7q3ksHaC5vWtZTCtxHIY5IioUy1Ur9rhx98VRnnv/nIfyB5V8s6d&#xA;r8Ekmu2mrSSRWB07i6F4eJkEsjFViKhx8LfF7daKsf8AKn/OWnkDU45W8w2t15YKwfWrd7tTNFcR&#xA;c+H7hol5u1ewTsd9sVQH5afnz5DvvO1r5O/L/wAnzwaPfSyy32owxJAEkIqJ3hjD1Q8aF3dSBTbt&#xA;ir0XyH+bvlrzn5i8x+XrFJIdR8u3MlvMkvErPFHIYjPFQ/Z5rQg9KjxxVjHm/wDOH8rvKn5jjyxq&#xA;OjxfXIbR7671WOCAiBo4XuFjIoHLtFHUU/mX6FWf/l/530rzv5RsPM2lq8drfK1YZac45I3MciNT&#xA;b4XU79xvir4i/wCcmfI9v5S/NbUI7NPT0/WEXVLWMCip67MsqDtQTI5A7AjFXlOKuxV2Kv0j/J3S&#xA;JdI/Kzyrp80XoTxabbtNCeqySoJHB9+TmvvirMcVdirsVfO8H5geTtI/5yo1a4vtUi9HU9KtNJsJ&#xA;Yqzxm5meFwjPHyCfZ77b74qyT8inW689fmxqJFJH8wtZk0/Zs/UjX9ZxV7Jir5g1D82rX8q/za86&#xA;2d1bi4uNd1vTJHEhaNI7CS2LSzhwCpKeooA+dcVRHlH8w7W1u/zm/NqOQPp5mt9P0WSnwTy2sbQQ&#xA;Ur158oT7A74qwb8kdK8kec/JnmnyN5i1+G2vr64tNZsb52Ebi6MTCXis/p+q0TEpIBswaqnuFXoH&#xA;5afnJ5p0j8x9O/LLVLrRfM2nz8obXVfLyCMQcUZxzSFI7fbh8aIo4VPxGlMVfSGKvl382/Nn5Qf4&#xA;C8+acdEstG86Jqr2n1REiF7cXCTiSK/SRVV/SdOUhPQVK/tDkqjfzj1i1uLn8m386y/VdHMMmr6+&#xA;0oJR57W1gmMRUcizM3JOPU86DFVHyHot1+eXnvV/P/ma3ktvJdnbXGkaBZOePJZo3ikeu45IkrMz&#xA;D/dhAB+DFUg8nfnHpv5P6hbeWLK/0vzd5KupneLUNNQw6jAGfc3IChZXHLatSQNmFOIVZx/zlL+X&#xA;/kiLyxqXm5dIWfzjq0tnplnd+pL/AHjOqhvSDCMv6EZQMR4Yq9q8n+WrLyz5Y0zQbNFSHTraK3qg&#xA;pzaNArSHYVZyKk4qs86z+b4PLF/P5Pt7W78xxIrWFrfchBIQ6l0Yq8VCY+XGrgcqVNMVfHHmTzD+&#xA;YepfmprXmOTyPdt5p0W60uaVdOMl2mnvYrVlleCOVXjuo1bq4H+tTFX2noOtWGu6JYazp787HUbe&#xA;O6tmIoSkqh1qOx33xV4D+f7eTPJP5neVfOWq6FbX2nX9rqsGr2wtoX+tTxwKbf1QylWZpJFXm1SF&#xA;+WKvNbfQ9csfyJ89+bNQ01NKsPNd3Yf4f0iFWSOFfrHxTRIN0V4n9NTtzHWqkVVZH+Wv5F+RdPuP&#xA;Nfl/z5A0nm/TLR5rb15qWclhKnGK8taCMlkf4H5MeLUxVj35Vfnd+YHlry/pml6XH5fvxezQWmm6&#xA;KxS3vnoXhJcwemiu7qvx3L8j1AblXFUP+UvnDU9F882vne48tXtlo1zqmojzF5jVJZLIW2pPGiwy&#xA;SCIRqLW4UNy571Pw1xVUh/KfzN+b/l/zX+Yelx+prF/rtdMtJWWLnZIGEiqzkL8PqxgVP+6yOuKv&#xA;a/8AnG27sPLWja15E1O/gi1LSPMN9YafDLKiPcxqiSBoUYhnr8TEAEgYq8W/5zJ8yaVqn5iafYWE&#xA;0VxJpNj6N7JEyvwneZy0LlSaMgAqvauKvAsVdir2X/nGH8qE87+dv0lqcXPy9oBS4ukYfDNcEkwQ&#xA;e4qpd/YUP2sVfd+KuxV2KuxV5J5Z/wCcZPy28vedZPM1tbtcx0Mlppl2Flhtrj1fUEsP2dkFFRXD&#xA;ceta4q9K0ry5omk3epXem2aWtxq9x9b1F0r+9n4BPUIJoCQorTqd+pOKpjirF9X/ACx8j6x5qh80&#xA;anpUN3q8NpJY85hzjeGUFSJImqjHi7KCR0Yjwoq84/ML8qptU1/yZ5D0LR0078uoLibWNee3WkLy&#xA;QEcYH95OZAr15V/YxVlXmT/nHn8nNfRBc+WbWzkjUrHLpoNgRyIJJW2McbnbbmrUxVMvIX5P/l75&#xA;E5yeXNKSC8lBWW/lZp7llPVRJIWKLsKqlAfDFWZ4qxHzH+Un5ceZPMFt5h1vQre91e14+ncuXUNw&#xA;+z6saMsc3Ht6itttiqO86eQPKHnXTotO8z6amo2kEgmhVnkiZHAIqskTRuKg7jlQ98VTfTdM0/S9&#xA;Pt9O063jtLG1QRW1tCoRERRQKqjFWNaZ+Uf5ZaXqy6vYeWdPg1JHMkdysKlkcmvJAahGr0Kjbtiq&#xA;a+afJ/l/zTaWlprdt9ZhsbuHULUcipS4tySj1H+sQR3BOKpzirsVed/ll5N13QfN/n/U9UhCx69q&#xA;qXWnXCuj+rbLGeGynkvAuVowHtUb4q9ExVjXnb8u/KvnWPTY/MFr9aj0q7S9tkqOJdOscikEPG42&#xA;dT1xVPL3TNNv7JrC+tIbqxfiHtZ41kiIQhlqjAqeLKCNsVeYf85FflH/AI+8nSTabHTzLpStLp5X&#xA;Zp49mktWPcPxDJXo4HicVSr8p/8AnHbyHo/lmy1W50trnzFOovLa51OOSO4tGekkMUkDO0aywNsz&#xA;BBUjpiqeflR+W+r6X+Ri+SdcDaZqt3b6la3ssLpK0Zu5p1SZHRipPpOjDf50OKsr/LXyTb+SPJGl&#xA;eWIZRP8Ao+Iia4VeAllkcySPxJalXc98VY1+Yfln8ufKena5+ZF5pEcuq2Dx6skpkkTlfwR+hbU4&#xA;sAvqM6qwpRjuQTir4D1nV7/WdXvdX1CT1b/UJ5Lm6loByklYu5oNhucVQWKuxV+gn/ONXlGHy3+U&#xA;OigJxutXT9K3b92a6AaL7oBGMVeoYq7FXYq7FXYq7FXYq7FXYq7FXYq7FXYq7FXYq7FXYq7FXYq7&#xA;FXYq7FXYq7FXYq7FXYq8Q/5zCnnj/J5kirwm1G1SelfsAO4rT/LReuKvhrFXYqidO06/1O/t9P0+&#xA;B7q+u5FhtreIFneRzRVUDuTir9OfLWnvpvlzStOkT03srO3t2QHkFMUSoRXetKYqmWKuxV2KuxV2&#xA;KuxV2KuxV2KuxV2KuxV2KuxV2KuxV2KuxV2KuxV2KuxV2KuxV2KuxV2KvOv+chfLf+IPye8yWipy&#xA;ntbb6/BTchrJhO3H3ZEZfpxV+eGKuxVkHkDzfceT/OWk+ZYIVuH0ycSmB+joQUkWvYlGND2O+Kv0&#xA;b8nebdF83eW7HzDo0vq2F9Hzj5UDowNHjkAJo6MCrDxxVOcVdirsVdirsVdirsVdirsVdirsVdir&#xA;sVdirsVdirsVdirsVdirsVdirsVdirsVdirsVUby0gvLOe0nXlBcxvFKvijqVYfccVfmD5h0a60P&#xA;XtR0a7FLnTbma0m7fFC5Qn6eOKoAAnpirWKvc/8AnF/86V8ma+fLetT8fLOsyjjK5+G0uyOKy+yS&#xA;bLJ4bHscVfcIIIqNwehxV2KuxV2KuxV2KuxV2KuxV2KuxV2KuxV2KuxV2KuxV2KuxV2KuxV2KuxV&#xA;2KuxV2KuxV2Kvjj/AJzG/LaPSfMdr52suK2uut9Xv4hsVvIk+Fx7Sxrv7qT+1irw3yRf6dp/nTQL&#xA;/U0WTTbPUrSe+R1Dq0EU6PKGU1BBQHbFWb/85BflKfy/83ltPUt5Y1jlc6PMCWVBsXty29THyHHf&#xA;dSD1riry3FX2d/zih+csnmPSD5K1yfnrWkwhtNnc/FcWaUXgSerw7D3X5E4q+hsVdirsVdirsVdi&#xA;rsVdirsVdirsVdirsVdirsVdirsVdirsVdirsVdirsVdirsVdirx/wD5yC/PS9/LK0sbbTdJ+u6l&#xA;qqSNb3dwWW0i9MgHkF+KR/i+wGXbevbFXxl53/Mvzx54uY5/M+qy3/oFjbwELHDFy68IowiAmg3p&#xA;U9zirGMVfbnkPyWv5o/84y6No/mC4Et60Mo06/NHe3ktp5YrVjQ78YlCMOpXbrvir4480eWda8sa&#xA;9eaFrVubbUbGQxzRncHurKf2lYbqR1GKrfLXmLVvLevWOu6RN6Go6fKs1vJ1FR1Vh3VlqrDuDTFX&#xA;6Oflx560zzz5O0/zJp9FW7Slzb1q0NwnwyxN/qt08RQ98VZLirsVdirsVdirsVdirsVdirsVdirs&#xA;VdirsVdirsVdirsVdirsVdirsVdirsVdiqF1LSdK1S2+ranZQX1tUN6FzEkych0PFwwrirHLn8o/&#xA;yrua+t5Q0Ylm5M62FsjE+JZUBxVLLn8gPyauQ4k8p2K89z6SvF77emy0+jFU7lPkr8tfJUsqRRaN&#xA;5a0eNpGjjBIHJugrVneR2oO7McVfDP54/nFJ+ZvmKC9TTIdOsLBWhsdg108bEGtxKOu4qqD4Vqeu&#xA;5KrzbFX1p/zhMvmiCz8ww3FpMnly4MFxZ3MiMsTXI5JJ6RNA/JAvKlacRir6gxV2KuxV2KuxV2Ku&#xA;xV2KuxV2KuxV2KuxV2KuxV2KuxV2KuxV2KuxV2KuxV2KuxV2KuxV2KpB558jeX/O3l+XQdejkl0+&#xA;V0lYRSNE4eM8lIZcVebJ/wA4ifkyrhjaXrgGpRrt6H2NAD+OKsr8vfkP+UPl91k0/wAsWbTJQrNd&#xA;hrxww/aBuWl4n5UxVniqqqFUBVUUVRsAB2GKt4q7FXYq7FXYq7FXYq7FXYq7FXYq7FXYq7FXYq7F&#xA;XYq7FXYq7FXYq7FXYq7FXYq7FXYq7FXYq7FXYq7FXYq7FXYq7FXYq7FXYq7FXYq7FXYq7FXYq7FX&#xA;Yq7FXYq7FXYq7FXYq7FXYq7FXYq7FXYq7FXYq7FXYq7FXYq7FX//2Q==</xmpGImg:image>
               </rdf:li>
            </rdf:Alt>
         </xmp:Thumbnails>
      </rdf:Description>
      <rdf:Description rdf:about=""
            xmlns:xmpTPg="http://ns.adobe.com/xap/1.0/t/pg/"
            xmlns:stDim="http://ns.adobe.com/xap/1.0/sType/Dimensions#"
            xmlns:stFnt="http://ns.adobe.com/xap/1.0/sType/Font#"
            xmlns:xmpG="http://ns.adobe.com/xap/1.0/g/">
         <xmpTPg:MaxPageSize rdf:parseType="Resource">
            <stDim:w>4.000000</stDim:w>
            <stDim:h>2.000000</stDim:h>
            <stDim:unit>Inches</stDim:unit>
         </xmpTPg:MaxPageSize>
         <xmpTPg:NPages>1</xmpTPg:NPages>
         <xmpTPg:HasVisibleTransparency>False</xmpTPg:HasVisibleTransparency>
         <xmpTPg:HasVisibleOverprint>False</xmpTPg:HasVisibleOverprint>
         <xmpTPg:Fonts>
            <rdf:Bag>
               <rdf:li rdf:parseType="Resource">
                  <stFnt:fontName>Fresh-Marker</stFnt:fontName>
                  <stFnt:fontFamily>Fresh Marker</stFnt:fontFamily>
                  <stFnt:fontFace>Regular</stFnt:fontFace>
                  <stFnt:fontType>TrueType</stFnt:fontType>
                  <stFnt:versionString>1.000</stFnt:versionString>
                  <stFnt:composite>False</stFnt:composite>
                  <stFnt:fontFileName>freshmarker.ttf</stFnt:fontFileName>
               </rdf:li>
            </rdf:Bag>
         </xmpTPg:Fonts>
         <xmpTPg:PlateNames>
            <rdf:Seq>
               <rdf:li>Cyan</rdf:li>
               <rdf:li>Magenta</rdf:li>
               <rdf:li>Yellow</rdf:li>
               <rdf:li>Black</rdf:li>
            </rdf:Seq>
         </xmpTPg:PlateNames>
         <xmpTPg:SwatchGroups>
            <rdf:Seq>
               <rdf:li rdf:parseType="Resource">
                  <xmpG:groupName>Default Swatch Group</xmpG:groupName>
                  <xmpG:groupType>0</xmpG:groupType>
               </rdf:li>
            </rdf:Seq>
         </xmpTPg:SwatchGroups>
      </rdf:Description>
   </rdf:RDF>
</x:xmpmeta>
                                                                                                    
                                                                                                    
                                                                                                    
                                                                                                    
                                                                                                    
                                                                                                    
                                                                                                    
                                                                                                    
                                                                                                    
                                                                                                    
                                                                                                    
                                                                                                    
                                                                                                    
                                                                                                    
                                                                                                    
                                                                                                    
                                                                                                    
                                                                                                    
                                                                                                    
                                                                                                    
                           
<?xpacket end="w"?>
	</metadata>
<g>
	<g>
		<path fill-rule="evenodd" clip-rule="evenodd" fill="none" d="M307.98,80.487c0,32.329-0.051,64.658,0.085,96.987
			c0.012,2.983-0.603,3.591-3.584,3.583c-47.994-0.118-95.988-0.117-143.981,0c-2.982,0.008-3.588-0.601-3.582-3.583
			c0.107-64.658,0.107-129.316,0-193.975c-0.006-2.982,0.6-3.59,3.582-3.583c47.993,0.117,95.987,0.117,143.981,0
			c2.981-0.008,3.596,0.6,3.584,3.583C307.93,15.828,307.98,48.158,307.98,80.487z M263.332,144.067
			c-2.295,2.599-6.183,3.85-8.118,7.275c-1.096,1.938-1.505,3.661,1.429,3.814c8.442,0.44,16.628-0.808,24.45-4.147
			c2.379-1.016,2.58-2.389,1.751-4.833c-2.032-5.991-5.93-10.708-9.16-15.926c-4.312-6.965-9.949-12.858-14.052-19.874
			c-2.188-3.741-8.305-6.661-1.919-11.861c0.608-0.494,0.236-2.229,0.27-3.391c0.222-7.933,3.414-14.814,7.679-21.264
			c1.935-2.923,3.724-5.763,3.368-9.494c-0.104-1.097-0.076-2.572,0.554-3.31c2.65-3.108,1.518-5.924-0.592-8.433
			c-2.055-2.443-1.417-3.354,1.299-4.408c8.765-3.402,15.458-17.973,4.989-27.516c-4.011-3.657-8.595-6.202-13.273-8.797
			c-3.42-1.896-7.622-3.25-10.341-1.613c-5.198,3.131-12.428-2.33-16.367,4.482c-0.406,0.702-1.794-0.031-2.719-0.483
			c-1.154-0.564-2.442-1.242-3.661-1.222c-5.274,0.088-9.455-1.683-13.175-5.609c-2.713-2.864-6.569-4.825-10.708-2.885
			c-3.155,1.48-7.113,2.998-6.919,7.363c0.175,3.932-0.774,7.072-4.326,9.859c4.565,0.221,8.216,0.455,8.667,5.812
			c0.127,1.504,2.397,3.371,4.1,4.087c3.884,1.639,5.959,3.959,7.137,8.258c1.69,6.165-0.041,10.506-6.445,11.85
			c-2.908,0.61-5.975-0.683-8.724-0.432c-5.263,0.48-10.33,2.202-13.73-3.812c-0.846-1.496-2.011,0.316-3.013,0.549
			c-0.92,0.214-2.15,1.239-1.57,2.103c1.24,1.843,1.493-0.495,2.248-0.715c0.453-0.132,1.306,0.842,1.871,1.424
			c0.641,0.66,0.111,1.401-0.422,1.559c-3.191,0.945-0.851,2.636-0.725,4.13c0.217,2.56,4.436,2.333,3.666,5.579
			c-0.113,0.479,1.126,1.051,2.018,0.382c1.853-1.39,4.094-2.602,1.566-5.7c4.503,3.317,9.541,3.35,13.986,3.801
			c6.035,0.612,13.111,2.642,17.688-4.212c0.344-0.513,1.391-2.146,1.93-0.114c0.602,2.267,2.898,3.191,3.771,4.877
			c3.613,6.981,5.894,14.231,0.774,21.641c-4.786,6.932-6.067,14.307-3.664,22.567c2.166,7.439,2.347,15.423,7.115,22.115
			c2.173,3.05,1.698,5.886-2.792,6.846c-1.54,0.329-2.899,1.465-4.371,2.169c-1.485,0.71-3.571,1.466-3.368,3.108
			c0.225,1.823,2.236,2.901,4.156,3.035c7.114,0.497,14.238,0.855,21.357,1.273c1.749,0.103,3.637-0.891,2.94-2.329
			c-1.186-2.45,0.829-4.853-0.703-7.183c-1.353-2.059-2.559-4.362-3.152-6.727c-0.574-2.291,0.225-4.821-0.775-7.191
			C251.866,127.968,255.55,137.378,263.332,144.067z"/>
		<path fill-rule="evenodd" clip-rule="evenodd" d="M263.332,144.067c-7.782-6.689-11.466-16.1-18.007-23.52
			c1,2.37,0.201,4.9,0.775,7.191c0.594,2.364,1.8,4.668,3.152,6.727c1.532,2.33-0.482,4.732,0.703,7.183
			c0.696,1.438-1.191,2.432-2.94,2.329c-7.119-0.418-14.243-0.776-21.357-1.273c-1.92-0.134-3.932-1.212-4.156-3.035
			c-0.203-1.643,1.883-2.398,3.368-3.108c1.472-0.704,2.831-1.84,4.371-2.169c4.49-0.96,4.965-3.796,2.792-6.846
			c-4.769-6.692-4.949-14.676-7.115-22.115c-2.403-8.261-1.122-15.636,3.664-22.567c5.119-7.41,2.839-14.66-0.774-21.641
			c-0.872-1.687-3.169-2.61-3.771-4.877c-0.539-2.032-1.586-0.398-1.93,0.114c-4.576,6.854-11.652,4.825-17.688,4.212
			c-4.445-0.451-9.483-0.484-13.986-3.801c2.527,3.098,0.286,4.31-1.566,5.7c-0.892,0.669-2.131,0.097-2.018-0.382
			c0.77-3.246-3.449-3.019-3.666-5.579c-0.126-1.494-2.467-3.185,0.725-4.13c0.533-0.157,1.063-0.898,0.422-1.559
			c-0.565-0.582-1.418-1.556-1.871-1.424c-0.755,0.221-1.008,2.558-2.248,0.715c-0.58-0.864,0.65-1.889,1.57-2.103
			c1.002-0.232,2.167-2.044,3.013-0.549c3.4,6.014,8.468,4.292,13.73,3.812c2.749-0.251,5.815,1.042,8.724,0.432
			c6.404-1.344,8.136-5.686,6.445-11.85c-1.178-4.298-3.253-6.619-7.137-8.258c-1.702-0.717-3.973-2.583-4.1-4.087
			c-0.451-5.356-4.102-5.591-8.667-5.812c3.552-2.788,4.501-5.927,4.326-9.859c-0.194-4.365,3.764-5.883,6.919-7.363
			c4.139-1.94,7.995,0.021,10.708,2.885c3.72,3.926,7.9,5.697,13.175,5.609c1.219-0.021,2.507,0.657,3.661,1.222
			c0.925,0.452,2.313,1.185,2.719,0.483c3.939-6.812,11.169-1.351,16.367-4.482c2.719-1.637,6.921-0.283,10.341,1.613
			c4.679,2.595,9.263,5.14,13.273,8.797c10.469,9.543,3.775,24.114-4.989,27.516c-2.716,1.054-3.354,1.964-1.299,4.408
			c2.109,2.508,3.242,5.324,0.592,8.433c-0.63,0.738-0.658,2.213-0.554,3.31c0.355,3.731-1.434,6.571-3.368,9.494
			c-4.265,6.449-7.457,13.331-7.679,21.264c-0.033,1.161,0.339,2.896-0.27,3.391c-6.386,5.2-0.269,8.12,1.919,11.861
			c4.103,7.016,9.74,12.909,14.052,19.874c3.23,5.218,7.128,9.935,9.16,15.926c0.829,2.444,0.628,3.817-1.751,4.833
			c-7.822,3.34-16.008,4.588-24.45,4.147c-2.934-0.153-2.524-1.877-1.429-3.814C257.149,147.917,261.037,146.666,263.332,144.067z"
			/>
	</g>
</g>
<g>
	<path d="M56.646,49.293c0.24-0.16,0.492-0.2,0.756-0.12c0.264,0.081,0.516,0.236,0.756,0.468c0.24,0.232,0.452,0.512,0.636,0.84
		c0.184,0.328,0.316,0.66,0.396,0.996s0.092,0.652,0.036,0.948c-0.056,0.296-0.204,0.524-0.444,0.684
		c-0.944,0.72-1.896,1.192-2.856,1.416v1.2c0,0.48-0.16,0.82-0.48,1.02c-0.32,0.2-0.712,0.18-1.176-0.06
		c-0.24-0.128-0.44-0.3-0.6-0.516c-0.16-0.216-0.36-0.444-0.6-0.684c-0.32,0.224-0.652,0.288-0.996,0.192
		c-0.344-0.096-0.664-0.28-0.96-0.552c-0.296-0.272-0.552-0.6-0.768-0.984c-0.216-0.384-0.356-0.76-0.42-1.128
		c-0.063-0.368-0.044-0.7,0.06-0.996c0.104-0.296,0.34-0.484,0.708-0.564c0.368,0,0.724-0.052,1.068-0.156
		c0.344-0.104,0.7-0.212,1.068-0.324c0-1.552,0.008-3.104,0.024-4.656c0.016-1.552,0.088-3.104,0.216-4.656
		c-0.272,0.128-0.556,0.136-0.852,0.024c-0.296-0.112-0.572-0.288-0.828-0.528c-0.256-0.24-0.48-0.524-0.672-0.852
		c-0.192-0.328-0.332-0.652-0.42-0.972c-0.088-0.32-0.104-0.612-0.048-0.876c0.056-0.264,0.204-0.46,0.444-0.588
		c0.96-0.496,1.96-0.82,3-0.972c1.04-0.152,2.096-0.228,3.168-0.228c0.496,0,0.92,0.196,1.272,0.588
		c0.352,0.393,0.648,0.836,0.888,1.332c0.063,0.112,0.116,0.288,0.156,0.528c0.04,0.24,0.048,0.48,0.024,0.72
		c-0.024,0.24-0.104,0.448-0.24,0.624c-0.136,0.176-0.356,0.264-0.66,0.264c-0.368,0-0.728,0.008-1.08,0.024
		c-0.353,0.016-0.712,0.08-1.08,0.192c0,1.456-0.036,2.892-0.108,4.308c-0.072,1.416-0.108,2.844-0.108,4.284
		c0.112,0,0.228-0.04,0.348-0.12S56.518,49.293,56.646,49.293z"/>
	<path d="M64.494,44.542c0,0.128-0.004,0.272-0.012,0.432c-0.008,0.16-0.04,0.308-0.096,0.444c-0.056,0.136-0.14,0.236-0.252,0.3
		c-0.112,0.064-0.272,0.057-0.48-0.024c-0.208-0.048-0.404-0.136-0.588-0.264c-0.184-0.128-0.348-0.288-0.492-0.48
		c-0.144-0.192-0.264-0.396-0.36-0.612c-0.096-0.216-0.168-0.428-0.216-0.636c-0.08-0.512-0.128-1.02-0.144-1.524
		c-0.016-0.504-0.024-1.052-0.024-1.644c0.16-0.832,0.16-1.664,0-2.496c-0.048-0.16-0.068-0.332-0.06-0.516
		c0.008-0.184,0.043-0.344,0.108-0.48c0.063-0.136,0.16-0.24,0.288-0.312c0.127-0.072,0.295-0.084,0.504-0.036
		c0.416,0.176,0.748,0.452,0.996,0.828c0.248,0.376,0.412,0.772,0.492,1.188c0.176,0.496,0.276,0.992,0.3,1.488
		c0.024,0.497,0.036,1,0.036,1.512c-0.08,0.496-0.12,0.964-0.12,1.404C64.374,43.554,64.414,44.03,64.494,44.542z"/>
	<path d="M80.43,53.085c0,0.208-0.048,0.388-0.144,0.54c-0.096,0.152-0.215,0.268-0.358,0.348s-0.302,0.12-0.476,0.12
		c-0.175,0-0.341-0.056-0.5-0.168c-0.429-0.32-0.755-0.696-0.977-1.128c-0.222-0.432-0.397-0.912-0.523-1.44
		c0-0.864-0.032-1.72-0.095-2.568c-0.064-0.848-0.096-1.704-0.096-2.568c-0.128,0.224-0.28,0.476-0.456,0.756
		c-0.176,0.28-0.312,0.532-0.408,0.756c-0.112,0.224-0.256,0.344-0.432,0.36c-0.176,0.017-0.356-0.016-0.54-0.096
		s-0.364-0.188-0.54-0.324c-0.176-0.136-0.32-0.26-0.432-0.372c-0.225-0.32-0.432-0.616-0.624-0.888s-0.336-0.624-0.432-1.056
		c-0.32,0.656-0.592,1.26-0.816,1.812c-0.224,0.552-0.448,1.092-0.672,1.62c-0.432,1.072-0.9,2.144-1.404,3.216
		c-0.504,1.072-0.972,2.145-1.404,3.216c0.063,0.111,0.096,0.24,0.096,0.384s-0.028,0.284-0.084,0.42
		c-0.056,0.136-0.136,0.252-0.24,0.348c-0.104,0.096-0.236,0.144-0.396,0.144c-0.224,0.096-0.44,0.112-0.648,0.048
		c-0.208-0.064-0.417-0.16-0.624-0.288c-0.336-0.32-0.604-0.684-0.804-1.092c-0.2-0.408-0.3-0.828-0.3-1.26H65.91
		c0-0.208,0.04-0.399,0.12-0.576c0.081-0.176,0.184-0.264,0.312-0.264c0.432-1.2,0.904-2.384,1.416-3.552
		c0.512-1.168,1.04-2.336,1.584-3.504c0.432-1.2,0.92-2.368,1.464-3.504c0.543-1.136,1.2-2.184,1.968-3.144
		c0.096-0.224,0.208-0.352,0.336-0.384c0.128-0.032,0.288-0.048,0.48-0.048c0.56,0.224,1.004,0.54,1.332,0.948
		c0.328,0.408,0.604,0.876,0.828,1.404c0.224-0.528,0.476-1.096,0.756-1.704c0.28-0.608,0.532-1.184,0.756-1.728
		c0.111-0.368,0.273-0.58,0.488-0.636c0.214-0.056,0.44-0.024,0.679,0.096c0.238,0.12,0.464,0.3,0.678,0.54
		c0.214,0.24,0.369,0.464,0.464,0.672c0.317,0.576,0.532,1.16,0.644,1.752c0.111,0.592,0.167,1.188,0.167,1.788
		s-0.024,1.208-0.072,1.824c-0.048,0.616-0.072,1.245-0.072,1.884c-0.127,1.2-0.15,2.416-0.071,3.648
		C80.246,50.67,80.334,51.885,80.43,53.085z"/>
	<path d="M107.622,38.733c0,0.176,0.016,0.388,0.048,0.636c0.032,0.248,0.043,0.484,0.036,0.708
		c-0.008,0.224-0.068,0.408-0.18,0.552c-0.112,0.144-0.312,0.192-0.6,0.144c-0.896,0-1.856,0.032-2.88,0.096
		c-1.024,0.064-2.032,0.212-3.024,0.444c-0.993,0.232-1.937,0.568-2.832,1.008c-0.896,0.44-1.656,1.044-2.28,1.812
		c0.464,0.336,0.992,0.665,1.584,0.984c0.592,0.32,1.12,0.592,1.584,0.816c0.336,0.176,0.692,0.348,1.068,0.516
		s0.748,0.352,1.116,0.552c0.368,0.2,0.716,0.412,1.044,0.636c0.328,0.224,0.604,0.48,0.828,0.768
		c0.224,0.288,0.416,0.604,0.576,0.948c0.16,0.344,0.252,0.692,0.276,1.044c0.024,0.352-0.028,0.688-0.156,1.008
		c-0.128,0.32-0.36,0.592-0.696,0.816c-1.024,0.8-2.145,1.368-3.36,1.704c-1.216,0.336-2.504,0.44-3.864,0.312
		c-0.448,0-0.84-0.18-1.176-0.54c-0.336-0.36-0.616-0.771-0.84-1.236c-0.048-0.112-0.096-0.28-0.144-0.504
		c-0.048-0.224-0.064-0.448-0.048-0.672c0.016-0.224,0.072-0.42,0.168-0.588c0.096-0.168,0.256-0.252,0.48-0.252
		c0.512,0.081,0.992,0.12,1.44,0.12s0.88-0.044,1.296-0.132c0.416-0.088,0.824-0.208,1.224-0.36c0.4-0.152,0.808-0.332,1.224-0.54
		c-0.464-0.24-0.996-0.512-1.596-0.816c-0.6-0.304-1.2-0.636-1.8-0.996c-0.6-0.36-1.164-0.76-1.692-1.2
		c-0.528-0.44-0.957-0.928-1.284-1.464c-0.328-0.536-0.524-1.124-0.588-1.764c-0.064-0.64,0.072-1.336,0.408-2.088
		c0.352-0.544,0.824-1.036,1.416-1.476c0.591-0.44,1.248-0.828,1.968-1.164s1.488-0.62,2.304-0.852
		c0.816-0.231,1.632-0.416,2.448-0.552c0.816-0.136,1.608-0.22,2.376-0.252s1.464-0.024,2.088,0.024
		c0.464,0.128,0.864,0.376,1.2,0.744S107.397,38.397,107.622,38.733z"/>
	<path d="M119.694,45.142c0.048,0.592,0.024,1.136-0.072,1.632c-0.096,0.496-0.256,0.952-0.48,1.368s-0.492,0.804-0.804,1.164
		c-0.312,0.36-0.66,0.7-1.044,1.02c-0.64,0.656-1.376,1.284-2.208,1.884c-0.832,0.6-1.68,1.052-2.544,1.356
		c-1.088,0.272-2.056,0.228-2.904-0.132s-1.564-0.904-2.148-1.632c-0.584-0.728-1.02-1.576-1.308-2.544
		c-0.288-0.968-0.408-1.916-0.36-2.844c0.048-0.688,0.18-1.376,0.396-2.064s0.5-1.344,0.852-1.968
		c0.352-0.624,0.771-1.204,1.26-1.74s1.028-0.996,1.62-1.38c-0.24-0.848,0.04-1.272,0.84-1.272c1.104,0.208,2.164,0.456,3.18,0.744
		s1.908,0.76,2.676,1.416c0.784,0.672,1.459,1.424,2.028,2.256C119.242,43.238,119.582,44.149,119.694,45.142z M116.862,44.47
		c0.064-0.32,0.012-0.604-0.156-0.852c-0.168-0.248-0.4-0.468-0.696-0.66c-0.296-0.192-0.632-0.36-1.008-0.504
		c-0.376-0.144-0.756-0.272-1.14-0.384l-0.24,0.264c-0.096,0.096-0.236,0.144-0.42,0.144s-0.332-0.048-0.444-0.144
		c-0.864,0.544-1.612,1.18-2.244,1.908c-0.632,0.728-1.108,1.532-1.428,2.412c-0.048,0.225-0.108,0.456-0.18,0.696
		c-0.072,0.24-0.132,0.48-0.18,0.72c-0.048,0.24-0.064,0.484-0.048,0.732c0.016,0.249,0.08,0.477,0.192,0.684v0.192
		c0.112,0.112,0.216,0.176,0.312,0.192c0.096,0.016,0.2,0.024,0.312,0.024c0.224,0,0.484-0.008,0.78-0.024
		c0.296-0.016,0.556-0.08,0.78-0.192c0.64-0.224,1.24-0.532,1.8-0.924c0.56-0.392,1.096-0.804,1.608-1.236
		c0.224-0.16,0.468-0.348,0.732-0.564c0.264-0.216,0.508-0.452,0.732-0.708s0.424-0.532,0.6-0.828
		C116.702,45.122,116.814,44.806,116.862,44.47z"/>
	<path d="M130.973,53.494c0.048,0.176,0.108,0.384,0.18,0.624c0.072,0.24,0.124,0.483,0.156,0.732
		c0.032,0.248,0.028,0.483-0.012,0.708c-0.04,0.224-0.148,0.392-0.324,0.504c-0.24,0.112-0.472,0.136-0.696,0.072
		c-0.224-0.064-0.44-0.168-0.648-0.312c-0.208-0.144-0.396-0.308-0.564-0.492c-0.168-0.184-0.309-0.333-0.42-0.444
		c-0.464-1.056-0.988-2.056-1.572-3c-0.584-0.944-1.228-1.879-1.932-2.808c-0.224-0.24-0.456-0.476-0.696-0.708
		c-0.24-0.232-0.472-0.468-0.696-0.708c-0.353,0.128-0.741,0.232-1.164,0.312c-0.424,0.08-0.813,0.056-1.164-0.072
		c-0.128,0.944-0.296,1.876-0.504,2.796c-0.208,0.92-0.432,1.853-0.672,2.796c-0.048,0.288-0.14,0.484-0.276,0.588
		c-0.136,0.104-0.292,0.148-0.468,0.132c-0.176-0.016-0.36-0.072-0.552-0.168c-0.192-0.096-0.376-0.2-0.552-0.312
		c-0.176-0.176-0.348-0.38-0.516-0.612s-0.312-0.472-0.432-0.72c-0.12-0.248-0.204-0.496-0.252-0.744s-0.04-0.492,0.024-0.732
		c0.24-0.816,0.464-1.632,0.672-2.448c0.208-0.816,0.376-1.632,0.504-2.448c-0.24-0.464-0.388-0.908-0.444-1.332
		c-0.056-0.423,0.092-0.756,0.444-0.996c0.111,0,0.184-0.008,0.216-0.024c0.032-0.016,0.112-0.08,0.24-0.192
		c0-0.24,0.008-0.524,0.024-0.852c0.016-0.328,0.087-0.667,0.216-1.02c-0.352-0.111-0.676-0.348-0.972-0.708
		c-0.296-0.36-0.524-0.744-0.684-1.152c-0.16-0.408-0.228-0.792-0.204-1.152s0.18-0.596,0.468-0.708
		c0.704-0.24,1.456-0.412,2.256-0.516c0.8-0.104,1.608-0.136,2.424-0.096s1.612,0.164,2.388,0.372
		c0.776,0.208,1.488,0.516,2.136,0.924c0.648,0.408,1.204,0.92,1.668,1.536c0.464,0.616,0.792,1.348,0.984,2.196
		c0.176,0.528,0.192,1.008,0.048,1.44s-0.376,0.824-0.696,1.176c-0.32,0.353-0.696,0.66-1.128,0.924
		c-0.432,0.264-0.848,0.484-1.248,0.66c0.816,1.056,1.58,2.192,2.292,3.408C129.537,51.134,130.253,52.326,130.973,53.494z
		 M122.357,41.158c0,0.352-0.04,0.712-0.12,1.08c-0.08,0.369-0.12,0.784-0.12,1.248h0.456c0.24-0.128,0.436-0.208,0.588-0.24
		c0.152-0.032,0.348-0.112,0.588-0.24c0.352-0.112,0.74-0.276,1.164-0.492c0.424-0.216,0.812-0.436,1.164-0.66
		c0-0.128-0.048-0.2-0.144-0.216c-0.096-0.016-0.208-0.024-0.336-0.024c-0.352-0.127-0.66-0.236-0.924-0.324
		s-0.572-0.132-0.924-0.132H122.357z"/>
	<path d="M142.709,53.494c0.048,0.176,0.108,0.384,0.18,0.624c0.072,0.24,0.124,0.483,0.156,0.732
		c0.032,0.248,0.028,0.483-0.012,0.708c-0.04,0.224-0.148,0.392-0.324,0.504c-0.24,0.112-0.472,0.136-0.696,0.072
		c-0.224-0.064-0.44-0.168-0.648-0.312c-0.208-0.144-0.396-0.308-0.564-0.492c-0.168-0.184-0.309-0.333-0.42-0.444
		c-0.464-1.056-0.988-2.056-1.572-3c-0.584-0.944-1.228-1.879-1.932-2.808c-0.224-0.24-0.456-0.476-0.696-0.708
		c-0.24-0.232-0.472-0.468-0.696-0.708c-0.353,0.128-0.741,0.232-1.164,0.312c-0.424,0.08-0.813,0.056-1.164-0.072
		c-0.128,0.944-0.296,1.876-0.504,2.796c-0.208,0.92-0.432,1.853-0.672,2.796c-0.048,0.288-0.14,0.484-0.276,0.588
		c-0.136,0.104-0.292,0.148-0.468,0.132c-0.176-0.016-0.36-0.072-0.552-0.168c-0.192-0.096-0.376-0.2-0.552-0.312
		c-0.176-0.176-0.348-0.38-0.516-0.612s-0.312-0.472-0.432-0.72c-0.12-0.248-0.204-0.496-0.252-0.744s-0.04-0.492,0.024-0.732
		c0.24-0.816,0.464-1.632,0.672-2.448c0.208-0.816,0.376-1.632,0.504-2.448c-0.24-0.464-0.388-0.908-0.444-1.332
		c-0.056-0.423,0.092-0.756,0.444-0.996c0.111,0,0.184-0.008,0.216-0.024c0.032-0.016,0.112-0.08,0.24-0.192
		c0-0.24,0.008-0.524,0.024-0.852c0.016-0.328,0.087-0.667,0.216-1.02c-0.352-0.111-0.676-0.348-0.972-0.708
		c-0.296-0.36-0.524-0.744-0.684-1.152c-0.16-0.408-0.228-0.792-0.204-1.152s0.18-0.596,0.468-0.708
		c0.704-0.24,1.456-0.412,2.256-0.516c0.8-0.104,1.608-0.136,2.424-0.096s1.612,0.164,2.388,0.372
		c0.776,0.208,1.488,0.516,2.136,0.924c0.648,0.408,1.204,0.92,1.668,1.536c0.464,0.616,0.792,1.348,0.984,2.196
		c0.176,0.528,0.192,1.008,0.048,1.44s-0.376,0.824-0.696,1.176c-0.32,0.353-0.696,0.66-1.128,0.924
		c-0.432,0.264-0.848,0.484-1.248,0.66c0.816,1.056,1.58,2.192,2.292,3.408C141.273,51.134,141.989,52.326,142.709,53.494z
		 M134.093,41.158c0,0.352-0.04,0.712-0.12,1.08c-0.08,0.369-0.12,0.784-0.12,1.248h0.456c0.24-0.128,0.436-0.208,0.588-0.24
		c0.152-0.032,0.348-0.112,0.588-0.24c0.352-0.112,0.74-0.276,1.164-0.492c0.424-0.216,0.812-0.436,1.164-0.66
		c0-0.128-0.048-0.2-0.144-0.216c-0.096-0.016-0.208-0.024-0.336-0.024c-0.352-0.127-0.66-0.236-0.924-0.324
		s-0.572-0.132-0.924-0.132H134.093z"/>
	<path d="M150.533,37.39c0.32,0.32,0.607,0.716,0.863,1.188c0.256,0.472,0.385,0.924,0.385,1.356c0,2.848-0.496,5.6-1.488,8.256
		c-0.992,2.656-2.385,5.096-4.176,7.32c-0.209,0.208-0.437,0.304-0.684,0.288c-0.249-0.016-0.488-0.108-0.721-0.276
		s-0.448-0.388-0.648-0.66c-0.2-0.272-0.359-0.56-0.479-0.864c-0.12-0.304-0.188-0.604-0.204-0.9
		c-0.016-0.296,0.048-0.548,0.192-0.756c0.432-0.512,0.856-1.08,1.272-1.704s0.841-1.248,1.272-1.872
		c-0.432-0.864-0.904-1.712-1.416-2.544c-0.513-0.832-1.024-1.664-1.536-2.496c-0.32,0.096-0.648,0.028-0.984-0.204
		c-0.336-0.232-0.624-0.536-0.864-0.912c-0.24-0.375-0.4-0.76-0.48-1.152s-0.016-0.692,0.192-0.9
		c0.128-0.208,0.252-0.372,0.372-0.492s0.284-0.228,0.492-0.324c0.16-0.064,0.315-0.076,0.468-0.036
		c0.152,0.04,0.3,0.104,0.444,0.192c0.144,0.088,0.284,0.196,0.42,0.324c0.136,0.128,0.252,0.24,0.348,0.336
		c0.64,0.944,1.276,1.896,1.908,2.856c0.633,0.96,1.26,1.968,1.885,3.024c0.527-1.264,0.939-2.576,1.236-3.936
		c0.295-1.36,0.443-2.776,0.443-4.248c0-0.432,0.141-0.736,0.42-0.912C149.744,37.166,150.102,37.182,150.533,37.39z"/>
	<path d="M155.693,52.197c0,0.112,0.035,0.256,0.107,0.432c0.072,0.176,0.108,0.32,0.108,0.432c0,0.112-0.036,0.184-0.108,0.216
		c-0.072,0.032-0.107,0.104-0.107,0.216c0,0.128-0.045,0.28-0.133,0.456s-0.188,0.32-0.3,0.432h-0.672
		c-0.32-0.112-0.563-0.231-0.731-0.36c-0.168-0.128-0.365-0.304-0.588-0.528c0-0.112-0.072-0.256-0.217-0.432
		c-0.144-0.176-0.216-0.32-0.216-0.432c0-0.112-0.036-0.22-0.108-0.324s-0.107-0.22-0.107-0.348v-0.864
		c0-0.111,0.044-0.22,0.132-0.324s0.188-0.22,0.3-0.348h0.217h0.455c0.049-0.048,0.112-0.063,0.192-0.048
		c0.08,0.016,0.168,0.052,0.265,0.108c0.096,0.056,0.195,0.124,0.299,0.204c0.104,0.08,0.213,0.144,0.324,0.192
		c0.176,0.08,0.313,0.172,0.408,0.276c0.096,0.104,0.172,0.216,0.229,0.336c0.056,0.12,0.1,0.24,0.131,0.36
		C155.605,51.97,155.645,52.086,155.693,52.197z"/>
	<path d="M162.004,52.197c0,0.112,0.037,0.256,0.108,0.432c0.072,0.176,0.108,0.32,0.108,0.432c0,0.112-0.036,0.184-0.108,0.216
		c-0.071,0.032-0.108,0.104-0.108,0.216c0,0.128-0.043,0.28-0.131,0.456c-0.089,0.176-0.189,0.32-0.301,0.432H160.9
		c-0.32-0.112-0.564-0.231-0.732-0.36c-0.168-0.128-0.363-0.304-0.588-0.528c0-0.112-0.072-0.256-0.216-0.432
		c-0.144-0.176-0.216-0.32-0.216-0.432c0-0.112-0.036-0.22-0.107-0.324c-0.072-0.104-0.108-0.22-0.108-0.348v-0.864
		c0-0.111,0.044-0.22,0.132-0.324s0.188-0.22,0.3-0.348h0.216h0.457c0.047-0.048,0.111-0.063,0.191-0.048
		c0.08,0.016,0.168,0.052,0.264,0.108c0.096,0.056,0.196,0.124,0.301,0.204c0.104,0.08,0.211,0.144,0.324,0.192
		c0.176,0.08,0.312,0.172,0.407,0.276c0.097,0.104,0.172,0.216,0.228,0.336c0.057,0.12,0.1,0.24,0.133,0.36
		C161.916,51.97,161.957,52.086,162.004,52.197z"/>
	<path d="M168.316,52.197c0,0.112,0.035,0.256,0.107,0.432c0.072,0.176,0.108,0.32,0.108,0.432c0,0.112-0.036,0.184-0.108,0.216
		c-0.072,0.032-0.107,0.104-0.107,0.216c0,0.128-0.045,0.28-0.133,0.456s-0.188,0.32-0.3,0.432h-0.672
		c-0.32-0.112-0.563-0.231-0.731-0.36c-0.168-0.128-0.365-0.304-0.588-0.528c0-0.112-0.072-0.256-0.217-0.432
		c-0.144-0.176-0.216-0.32-0.216-0.432c0-0.112-0.036-0.22-0.108-0.324s-0.107-0.22-0.107-0.348v-0.864
		c0-0.111,0.044-0.22,0.132-0.324s0.188-0.22,0.3-0.348h0.217h0.455c0.049-0.048,0.112-0.063,0.192-0.048
		c0.08,0.016,0.168,0.052,0.265,0.108c0.096,0.056,0.195,0.124,0.299,0.204c0.104,0.08,0.213,0.144,0.324,0.192
		c0.176,0.08,0.313,0.172,0.408,0.276c0.096,0.104,0.172,0.216,0.229,0.336c0.056,0.12,0.1,0.24,0.131,0.36
		C168.229,51.97,168.268,52.086,168.316,52.197z"/>
	<path d="M-9.233,78.094c0.24-0.16,0.492-0.2,0.756-0.121c0.264,0.081,0.516,0.236,0.756,0.469c0.24,0.232,0.452,0.512,0.636,0.84
		c0.184,0.328,0.316,0.66,0.396,0.996s0.092,0.652,0.036,0.947c-0.056,0.297-0.204,0.525-0.444,0.685
		c-0.944,0.72-1.896,1.192-2.856,1.416v1.2c0,0.48-0.16,0.82-0.48,1.02c-0.32,0.2-0.712,0.18-1.176-0.06
		c-0.24-0.128-0.44-0.3-0.6-0.517c-0.16-0.215-0.36-0.443-0.6-0.684c-0.32,0.225-0.652,0.288-0.996,0.192
		c-0.344-0.097-0.664-0.28-0.96-0.552c-0.296-0.273-0.552-0.601-0.768-0.984c-0.216-0.385-0.356-0.76-0.42-1.128
		c-0.063-0.368-0.044-0.7,0.06-0.996s0.34-0.483,0.708-0.563c0.368,0,0.724-0.053,1.068-0.156s0.7-0.213,1.068-0.324
		c0-1.552,0.008-3.104,0.024-4.656c0.016-1.552,0.088-3.104,0.216-4.656c-0.272,0.128-0.556,0.136-0.852,0.024
		c-0.296-0.112-0.572-0.288-0.828-0.528c-0.256-0.24-0.48-0.524-0.672-0.852c-0.192-0.328-0.332-0.652-0.42-0.972
		c-0.088-0.32-0.104-0.612-0.048-0.876c0.056-0.264,0.204-0.46,0.444-0.588c0.96-0.496,1.96-0.82,3-0.972
		c1.04-0.152,2.096-0.228,3.168-0.228c0.496,0,0.92,0.196,1.272,0.588c0.352,0.393,0.648,0.836,0.888,1.332
		c0.063,0.112,0.116,0.288,0.156,0.528c0.04,0.24,0.048,0.48,0.024,0.72c-0.024,0.24-0.104,0.448-0.24,0.624
		c-0.136,0.176-0.356,0.264-0.66,0.264c-0.368,0-0.728,0.008-1.08,0.024c-0.353,0.016-0.712,0.08-1.08,0.192
		c0,1.456-0.036,2.892-0.108,4.308c-0.072,1.416-0.108,2.844-0.108,4.285c0.112,0,0.228-0.041,0.348-0.121
		S-9.362,78.094-9.233,78.094z"/>
	<path d="M4.519,66.189c0.255-0.032,0.504,0.036,0.744,0.204c0.24,0.168,0.456,0.393,0.648,0.672
		c0.192,0.28,0.348,0.592,0.468,0.936s0.188,0.664,0.204,0.96c0.016,0.296-0.036,0.544-0.156,0.744c-0.12,0.201-0.324,0.3-0.612,0.3
		c-1.072,0.112-2.152,0.224-3.24,0.336c-1.088,0.112-2.232,0.224-3.432,0.336c-0.32,1.92-0.54,3.836-0.66,5.749
		s-0.18,3.875-0.18,5.892c-0.128,0.464-0.308,0.788-0.54,0.972s-0.556,0.164-0.972-0.06c-0.432-0.337-0.792-0.752-1.08-1.248
		s-0.432-0.976-0.432-1.44c0-1.695,0.088-3.34,0.264-4.932c0.176-1.592,0.368-3.236,0.576-4.932c-0.528,0.128-1.096,0.2-1.704,0.216
		c-0.608,0.017-1.184,0.024-1.728,0.024c-0.24,0-0.48-0.096-0.72-0.288c-0.24-0.192-0.456-0.428-0.648-0.708
		c-0.192-0.28-0.348-0.588-0.468-0.924c-0.12-0.336-0.188-0.644-0.204-0.924c-0.016-0.28,0.036-0.516,0.156-0.708
		c0.12-0.192,0.324-0.288,0.612-0.288c2.16-0.112,4.32-0.231,6.48-0.36C0.054,66.589,2.262,66.414,4.519,66.189z"/>
	<path d="M29.55,68.445c0.128,1.152,0.216,2.276,0.264,3.372c0.048,1.097-0.04,2.22-0.264,3.372c-0.096,0.527-0.2,1.076-0.312,1.645
		c-0.112,0.567-0.248,1.131-0.408,1.691c-0.16,0.561-0.348,1.096-0.564,1.607c-0.216,0.513-0.484,0.984-0.804,1.416
		c-0.272,0.528-0.616,0.861-1.032,0.996c-0.417,0.137-0.849,0.145-1.296,0.024s-0.884-0.336-1.308-0.647
		c-0.424-0.313-0.765-0.652-1.02-1.021l-0.408-0.408c-0.224,0.528-0.484,1.052-0.78,1.572c-0.296,0.521-0.604,1.044-0.924,1.571
		c-0.048,0.16-0.132,0.248-0.252,0.265c-0.12,0.016-0.252,0-0.396-0.048c-0.144-0.049-0.292-0.117-0.444-0.204
		c-0.152-0.089-0.284-0.156-0.396-0.204c-0.848-0.848-1.456-1.792-1.824-2.832c-0.368-1.04-0.608-2.145-0.72-3.313
		c-0.208-1.264-0.32-2.527-0.336-3.791s0.032-2.536,0.144-3.816c0.032-0.384,0.128-0.644,0.288-0.78
		c0.16-0.136,0.348-0.18,0.564-0.132c0.216,0.048,0.44,0.164,0.672,0.348c0.231,0.184,0.444,0.404,0.636,0.66
		c0.192,0.256,0.344,0.528,0.456,0.816c0.112,0.288,0.152,0.552,0.12,0.792c-0.112,0.96-0.168,1.876-0.168,2.748
		s0.056,1.788,0.168,2.747c0,0.32,0.008,0.625,0.024,0.912c0.016,0.289,0.08,0.545,0.192,0.769c0.32-0.512,0.636-1.08,0.948-1.704
		s0.627-1.248,0.948-1.872c0.112-0.159,0.264-0.239,0.456-0.239s0.384,0.047,0.576,0.144c0.192,0.096,0.372,0.212,0.54,0.349
		c0.168,0.135,0.284,0.26,0.348,0.371c0.208,0.32,0.388,0.672,0.54,1.057c0.152,0.384,0.18,0.736,0.084,1.056
		c0,0.208,0.008,0.407,0.024,0.601c0.016,0.191,0.072,0.344,0.168,0.455c0,0.049,0.032,0.101,0.096,0.156
		c0.064,0.057,0.14,0.096,0.228,0.12s0.164,0.032,0.228,0.024s0.096-0.037,0.096-0.084c0.32-0.225,0.548-0.508,0.684-0.853
		c0.136-0.344,0.26-0.628,0.372-0.853c0.112-0.319,0.212-0.635,0.3-0.947c0.087-0.313,0.132-0.628,0.132-0.948
		c0.416-1.264,0.68-2.563,0.792-3.9c0.112-1.336,0.056-2.636-0.168-3.9c0-0.16,0.004-0.34,0.012-0.54
		c0.008-0.2,0.048-0.38,0.12-0.54c0.072-0.16,0.18-0.284,0.324-0.372s0.352-0.108,0.624-0.06c0.416,0.224,0.771,0.568,1.068,1.032
		C29.258,67.589,29.454,68.029,29.55,68.445z"/>
	<path d="M41.046,80.733c0.096,0.112,0.164,0.261,0.204,0.444c0.04,0.184,0.048,0.367,0.024,0.552s-0.088,0.353-0.192,0.504
		c-0.104,0.152-0.252,0.252-0.444,0.3c-0.192,0-0.376-0.052-0.552-0.156c-0.176-0.104-0.34-0.235-0.492-0.396
		c-0.152-0.159-0.292-0.332-0.42-0.517c-0.128-0.184-0.24-0.348-0.336-0.492c-0.592,0-1.188,0.033-1.788,0.097
		s-1.196,0.097-1.788,0.097c-0.112,0-0.216-0.009-0.312-0.025c-0.096-0.016-0.2-0.071-0.312-0.168
		c-0.496,1.297-1.044,2.545-1.644,3.744c-0.6,1.201-1.236,2.393-1.908,3.576c-0.096,0.24-0.232,0.368-0.408,0.385
		c-0.176,0.016-0.364-0.045-0.564-0.181c-0.2-0.136-0.396-0.328-0.588-0.575c-0.192-0.249-0.352-0.517-0.48-0.805
		s-0.212-0.568-0.252-0.84c-0.04-0.272-0.012-0.512,0.084-0.721c1.6-3.023,3.032-6.1,4.296-9.228
		c1.264-3.128,2.352-6.308,3.264-9.54c0.128-0.384,0.352-0.556,0.672-0.516c0.32,0.04,0.632,0.156,0.936,0.348
		c0.288,0.288,0.524,0.624,0.708,1.008c0.184,0.384,0.276,0.784,0.276,1.2c-0.096,2,0.012,4.013,0.324,6.036
		C39.666,76.89,40.23,78.846,41.046,80.733z M37.038,75.166c-0.112,0.383-0.256,0.783-0.432,1.199
		c-0.176,0.416-0.368,0.832-0.576,1.248h1.632c-0.112-0.416-0.216-0.832-0.312-1.248C37.254,75.949,37.149,75.549,37.038,75.166z"/>
	<path d="M53.046,76.918c0.16,0.703,0.084,1.355-0.228,1.955s-0.744,1.141-1.296,1.62c-0.552,0.479-1.16,0.892-1.824,1.236
		s-1.26,0.597-1.788,0.756c-0.64,0.224-1.312,0.38-2.016,0.468c-0.705,0.088-1.392,0.092-2.064,0.012
		c-0.672-0.08-1.304-0.26-1.896-0.539c-0.592-0.28-1.104-0.685-1.536-1.213c-0.112-0.159-0.224-0.344-0.336-0.552
		s-0.204-0.428-0.276-0.659c-0.072-0.232-0.1-0.465-0.084-0.697c0.016-0.23,0.104-0.451,0.264-0.659
		c0.112-0.224,0.256-0.349,0.432-0.372c0.176-0.023,0.356,0.004,0.54,0.084c0.184,0.08,0.364,0.191,0.54,0.336
		c0.176,0.145,0.32,0.264,0.432,0.359c-0.048,0-0.044,0.013,0.012,0.037c0.056,0.023,0.14,0.047,0.252,0.071
		c0.112,0.024,0.224,0.048,0.336,0.072c0.112,0.024,0.192,0.036,0.24,0.036h1.296c0.32,0,0.688-0.052,1.104-0.156
		c0.416-0.104,0.832-0.26,1.248-0.468c0.448-0.128,0.84-0.284,1.176-0.468s0.672-0.381,1.008-0.588
		c0.08-0.129,0.184-0.244,0.312-0.349c0.127-0.104,0.304-0.212,0.528-0.323c-0.112,0-0.22-0.037-0.324-0.109
		c-0.104-0.071-0.22-0.107-0.348-0.107c-0.417-0.111-0.84-0.229-1.272-0.348c-0.432-0.12-0.856-0.292-1.272-0.516
		c-0.849-0.416-1.641-0.877-2.376-1.381s-1.376-1.18-1.92-2.027c-0.272-0.433-0.456-0.872-0.552-1.32
		c-0.096-0.448-0.112-0.876-0.048-1.284c0.063-0.408,0.216-0.792,0.456-1.152c0.24-0.36,0.568-0.676,0.984-0.948
		c0.768-0.448,1.568-0.816,2.4-1.104c0.832-0.288,1.68-0.432,2.544-0.432c0.256-0.032,0.504,0.032,0.744,0.192
		c0.24,0.16,0.456,0.368,0.648,0.624s0.348,0.544,0.468,0.864c0.12,0.32,0.184,0.621,0.192,0.9c0.008,0.28-0.044,0.52-0.156,0.72
		c-0.112,0.2-0.312,0.316-0.6,0.348c-0.768,0-1.512,0.144-2.232,0.432c-0.72,0.288-1.408,0.648-2.064,1.08
		c-0.032,0.048-0.072,0.088-0.12,0.12c-0.096,0.064-0.192,0.096-0.288,0.096c0.208,0.224,0.424,0.392,0.648,0.504
		c0.224,0.112,0.504,0.231,0.84,0.36c0.64,0.207,1.348,0.408,2.124,0.6c0.776,0.191,1.52,0.443,2.232,0.756
		c0.712,0.313,1.335,0.713,1.872,1.2C52.538,75.474,52.886,76.117,53.046,76.918z"/>
	<path d="M80.79,65.949c0.4,0,0.792,0.2,1.176,0.6c0.384,0.4,0.684,0.844,0.9,1.332c0.216,0.488,0.3,0.932,0.252,1.332
		c-0.048,0.4-0.296,0.6-0.744,0.6c-1.392,0-2.72,0.096-3.984,0.288c-1.264,0.192-2.528,0.4-3.792,0.624
		c0.448,0.833,0.828,1.701,1.14,2.604c0.312,0.904,0.516,1.816,0.612,2.736c0.096,0.92,0.063,1.836-0.096,2.748
		c-0.16,0.911-0.48,1.784-0.96,2.616c-0.288,0.464-0.632,0.872-1.032,1.224c-0.4,0.353-0.836,0.624-1.308,0.815
		c-0.472,0.192-0.972,0.28-1.5,0.265c-0.528-0.017-1.08-0.168-1.656-0.456c-0.528-0.288-0.992-0.64-1.392-1.057
		c-0.4-0.415-0.752-0.879-1.056-1.392c-0.304-0.512-0.556-1.067-0.756-1.668c-0.201-0.6-0.356-1.212-0.468-1.836
		c0-0.224,0.052-0.407,0.156-0.552c0.104-0.145,0.231-0.252,0.384-0.324c0.152-0.072,0.32-0.107,0.504-0.107s0.364,0.023,0.54,0.071
		c0.368,0.288,0.64,0.628,0.816,1.021c0.176,0.393,0.344,0.768,0.504,1.128c0.16,0.36,0.356,0.664,0.588,0.911
		c0.231,0.249,0.604,0.373,1.116,0.373c0.448-0.112,0.84-0.364,1.176-0.756c0.336-0.393,0.616-0.82,0.84-1.285
		c0.256-0.495,0.428-1.027,0.516-1.596c0.088-0.567,0.092-1.131,0.012-1.691s-0.256-1.092-0.528-1.596
		c-0.272-0.504-0.648-0.933-1.128-1.285c-0.592,0.112-1.172,0.272-1.74,0.48c-0.568,0.208-1.14,0.424-1.716,0.648
		c-0.256,0.111-0.524,0.111-0.804,0c-0.28-0.112-0.54-0.288-0.78-0.528s-0.448-0.524-0.624-0.852
		c-0.176-0.328-0.296-0.648-0.36-0.96c-0.064-0.312-0.06-0.588,0.012-0.828c0.072-0.24,0.244-0.399,0.516-0.48
		c2.32-1.023,4.712-1.78,7.176-2.268C75.765,66.361,78.261,66.062,80.79,65.949z"/>
	<path d="M91.542,67.677c0.112-0.32,0.268-0.512,0.468-0.576c0.2-0.063,0.416-0.036,0.648,0.084c0.232,0.12,0.46,0.309,0.684,0.564
		s0.416,0.536,0.576,0.84c0.16,0.304,0.268,0.608,0.324,0.912c0.056,0.304,0.028,0.56-0.084,0.768
		c-0.448,1.408-1.032,2.8-1.752,4.176c-0.72,1.377-1.512,2.664-2.376,3.863c-0.432,0.673-0.908,1.281-1.428,1.824
		c-0.521,0.545-1.06,1.089-1.62,1.633c-0.224,0.225-0.456,0.452-0.696,0.684c-0.24,0.232-0.497,0.436-0.768,0.612
		c-0.272,0.176-0.556,0.308-0.852,0.396c-0.296,0.088-0.612,0.108-0.948,0.061c-0.432,0-0.82-0.088-1.164-0.264
		s-0.652-0.408-0.924-0.697c-0.272-0.287-0.504-0.611-0.696-0.971c-0.192-0.361-0.344-0.732-0.456-1.117
		c-0.225-0.639-0.344-1.332-0.36-2.076c-0.016-0.743,0.032-1.5,0.144-2.268c0.112-1.535,0.42-3.039,0.924-4.512
		c0.504-1.472,1.14-2.864,1.908-4.176c0.096-0.256,0.244-0.388,0.444-0.396c0.2-0.008,0.412,0.068,0.636,0.228
		c0.224,0.16,0.444,0.384,0.66,0.672c0.216,0.288,0.396,0.596,0.54,0.924c0.144,0.328,0.231,0.656,0.264,0.984
		c0.032,0.328-0.024,0.621-0.168,0.876c-0.56,0.977-1.04,2.041-1.44,3.193c-0.4,1.151-0.712,2.327-0.936,3.527
		c0,0.32-0.036,0.688-0.108,1.104c-0.072,0.416-0.108,0.849-0.108,1.297c0.992-0.736,1.916-1.564,2.772-2.484
		s1.644-1.904,2.364-2.952c0.72-1.048,1.372-2.144,1.956-3.288C90.553,69.978,91.077,68.829,91.542,67.677z"/>
	<path d="M109.085,67.533c0,0.176,0.016,0.388,0.048,0.636c0.032,0.248,0.043,0.484,0.036,0.708
		c-0.008,0.224-0.068,0.408-0.18,0.552c-0.112,0.144-0.312,0.192-0.6,0.144c-0.896,0-1.856,0.032-2.88,0.096
		c-1.024,0.064-2.032,0.212-3.024,0.444c-0.993,0.232-1.937,0.568-2.832,1.008c-0.896,0.44-1.656,1.045-2.28,1.813
		c0.464,0.336,0.992,0.664,1.584,0.984c0.592,0.32,1.12,0.592,1.584,0.815c0.336,0.177,0.692,0.349,1.068,0.517
		s0.748,0.352,1.116,0.551c0.368,0.201,0.716,0.412,1.044,0.637c0.328,0.225,0.604,0.48,0.828,0.768
		c0.224,0.288,0.416,0.604,0.576,0.948c0.16,0.345,0.252,0.692,0.276,1.044s-0.028,0.688-0.156,1.008s-0.36,0.592-0.696,0.816
		c-1.024,0.801-2.145,1.367-3.36,1.703c-1.216,0.337-2.504,0.44-3.864,0.313c-0.448,0-0.84-0.18-1.176-0.54s-0.616-0.771-0.84-1.235
		c-0.048-0.112-0.096-0.28-0.144-0.504c-0.048-0.225-0.064-0.448-0.048-0.672c0.016-0.225,0.072-0.42,0.168-0.589
		c0.096-0.168,0.256-0.252,0.48-0.252c0.512,0.081,0.992,0.12,1.44,0.12s0.88-0.044,1.296-0.132c0.416-0.088,0.824-0.208,1.224-0.36
		s0.808-0.332,1.224-0.539c-0.464-0.24-0.996-0.513-1.596-0.816c-0.6-0.305-1.2-0.637-1.8-0.996c-0.6-0.36-1.164-0.76-1.692-1.2
		s-0.957-0.928-1.284-1.464c-0.328-0.536-0.524-1.124-0.588-1.764c-0.064-0.64,0.072-1.336,0.408-2.088
		c0.352-0.544,0.824-1.036,1.416-1.476c0.591-0.44,1.248-0.828,1.968-1.164s1.488-0.62,2.304-0.852
		c0.816-0.231,1.632-0.416,2.448-0.552c0.816-0.136,1.608-0.22,2.376-0.252s1.464-0.024,2.088,0.024
		c0.464,0.128,0.864,0.376,1.2,0.744S108.861,67.197,109.085,67.533z"/>
	<path d="M121.733,65.901c0.24-0.064,0.483-0.04,0.732,0.072c0.248,0.112,0.48,0.276,0.696,0.492s0.404,0.464,0.564,0.744
		c0.16,0.28,0.268,0.552,0.324,0.816c0.056,0.264,0.048,0.504-0.024,0.72c-0.072,0.216-0.228,0.356-0.468,0.42
		c-1.008,0.384-2.052,0.736-3.132,1.056c-1.08,0.32-2.124,0.64-3.132,0.96c-0.72,1.936-1.296,3.901-1.728,5.892
		c-0.432,1.992-0.8,4.013-1.104,6.06c-0.048,0.208-0.144,0.344-0.288,0.408s-0.296,0.088-0.456,0.072
		c-0.16-0.016-0.324-0.057-0.492-0.12s-0.3-0.12-0.396-0.168c-0.416-0.304-0.716-0.692-0.9-1.164
		c-0.184-0.472-0.22-0.964-0.108-1.476c0.208-1.424,0.459-2.828,0.756-4.213c0.296-1.383,0.644-2.739,1.044-4.067
		c-0.608,0.192-1.204,0.353-1.788,0.479c-0.584,0.129-1.124,0.305-1.62,0.528c-0.24,0.064-0.484,0.04-0.732-0.071
		c-0.248-0.112-0.484-0.28-0.708-0.504c-0.224-0.225-0.42-0.477-0.588-0.756c-0.168-0.28-0.284-0.553-0.348-0.817
		c-0.064-0.264-0.076-0.5-0.036-0.708c0.04-0.208,0.164-0.344,0.372-0.408c1.12-0.4,2.235-0.768,3.348-1.104
		c1.112-0.336,2.228-0.712,3.348-1.128c0.096-0.208,0.236-0.32,0.42-0.336s0.372,0.032,0.564,0.144
		c1.04-0.304,2.028-0.604,2.964-0.9C119.753,66.529,120.725,66.222,121.733,65.901z"/>
	<path d="M147.58,79.342c0.049,0.111,0.097,0.264,0.145,0.455c0.048,0.192,0.064,0.385,0.048,0.576
		c-0.017,0.192-0.067,0.369-0.155,0.528c-0.089,0.16-0.236,0.272-0.444,0.336c-0.208,0-0.404-0.044-0.589-0.132
		c-0.184-0.088-0.355-0.204-0.516-0.348c-0.16-0.145-0.304-0.301-0.432-0.469c-0.129-0.168-0.24-0.332-0.336-0.492
		c-0.736,0-1.464-0.031-2.184-0.096c-0.72-0.063-1.392-0.096-2.016-0.096c-0.048,0.672-0.12,1.328-0.216,1.968
		c-0.096,0.64-0.188,1.284-0.276,1.933c-0.088,0.647-0.152,1.303-0.192,1.967s-0.02,1.34,0.06,2.029
		c0,0.144-0.004,0.312-0.012,0.504c-0.008,0.191-0.044,0.359-0.108,0.504c-0.064,0.144-0.168,0.243-0.312,0.299
		c-0.144,0.057-0.344,0.028-0.6-0.084c-0.576-0.127-1-0.407-1.272-0.84c-0.272-0.432-0.448-0.943-0.528-1.535
		s-0.088-1.236-0.024-1.932c0.064-0.697,0.148-1.381,0.252-2.053s0.2-1.292,0.288-1.859c0.088-0.568,0.116-1.021,0.084-1.356
		c-0.24-0.144-0.476-0.235-0.708-0.276c-0.232-0.039-0.464-0.063-0.696-0.072c-0.232-0.008-0.46-0.023-0.684-0.047
		c-0.224-0.024-0.448-0.101-0.672-0.229c-0.256-0.08-0.556-0.271-0.9-0.576c-0.344-0.304-0.632-0.644-0.864-1.02
		s-0.364-0.76-0.396-1.152c-0.032-0.393,0.136-0.716,0.504-0.973c0.16-0.159,0.333-0.247,0.516-0.264
		c0.184-0.016,0.368,0,0.552,0.049c0.184,0.047,0.364,0.115,0.54,0.203c0.176,0.088,0.336,0.156,0.48,0.204
		c0.417,0.208,0.832,0.372,1.248,0.492s0.84,0.236,1.272,0.349c0.256-0.672,0.4-1.396,0.432-2.172
		c0.032-0.776,0.048-1.561,0.048-2.353s0.036-1.568,0.108-2.328c0.072-0.76,0.276-1.46,0.612-2.1
		c0.24-0.224,0.556-0.352,0.948-0.384s0.708,0.016,0.948,0.144c0.56,0.544,1.036,1.144,1.428,1.8
		c0.392,0.656,0.736,1.352,1.032,2.088c0.296,0.736,0.564,1.492,0.804,2.268c0.24,0.777,0.488,1.545,0.744,2.305
		s0.543,1.5,0.863,2.22S147.116,78.717,147.58,79.342z M143.597,76.006c-0.272-0.608-0.536-1.244-0.792-1.908
		c-0.256-0.664-0.608-1.268-1.056-1.813c0,0.096-0.004,0.209-0.012,0.336c-0.008,0.129-0.024,0.324-0.048,0.588
		s-0.06,0.616-0.108,1.057c-0.048,0.439-0.12,1.02-0.216,1.74H143.597z"/>
	<path d="M170.932,71.181c0.561,0.784,0.855,1.552,0.889,2.304c0.031,0.753-0.112,1.479-0.432,2.185
		c-0.32,0.703-0.766,1.388-1.332,2.051c-0.568,0.664-1.173,1.305-1.813,1.92c-0.641,0.617-1.264,1.209-1.872,1.777
		c-0.608,0.567-1.104,1.107-1.488,1.619c-0.017,0.496-0.084,0.844-0.204,1.045c-0.119,0.199-0.275,0.295-0.468,0.287
		s-0.399-0.096-0.624-0.264s-0.439-0.381-0.648-0.637c-0.207-0.256-0.396-0.523-0.563-0.803c-0.168-0.28-0.292-0.541-0.372-0.781
		c-0.32-1.695-0.58-3.416-0.779-5.16c-0.201-1.743-0.469-3.439-0.805-5.087c-0.129,0-0.252,0.008-0.372,0.024
		c-0.12,0.016-0.292,0.088-0.517,0.216c-0.191,0.032-0.398-0.028-0.623-0.18c-0.225-0.152-0.436-0.364-0.637-0.636
		c-0.199-0.272-0.383-0.576-0.552-0.912c-0.168-0.336-0.284-0.656-0.348-0.96c-0.063-0.304-0.072-0.576-0.024-0.816
		c0.049-0.24,0.185-0.4,0.408-0.48c0.16,0,0.336-0.027,0.528-0.084c0.192-0.056,0.392-0.111,0.6-0.168
		c0.208-0.056,0.421-0.108,0.636-0.156c0.217-0.048,0.436-0.064,0.66-0.048c0-0.464,0.148-0.792,0.444-0.984
		c0.296-0.192,0.612-0.168,0.948,0.072c0.224,0.112,0.399,0.232,0.527,0.36c0.129,0.128,0.24,0.312,0.336,0.552
		c0.769,0.096,1.553,0.22,2.353,0.372c0.8,0.152,1.575,0.364,2.327,0.636c0.752,0.272,1.457,0.628,2.113,1.068
		C169.884,69.954,170.452,70.509,170.932,71.181z M168.676,72.813c-1.76-0.928-3.536-1.392-5.328-1.392
		c0,0.416,0.024,0.836,0.072,1.26s0.107,0.88,0.18,1.367c0.072,0.488,0.145,1.029,0.217,1.621s0.14,1.256,0.203,1.991
		c0.208-0.159,0.424-0.339,0.648-0.54c0.224-0.199,0.504-0.476,0.84-0.828c0.336-0.352,0.756-0.804,1.26-1.355
		C167.271,74.385,167.908,73.678,168.676,72.813z"/>
	<path d="M187.229,86.613c0.096,0.145,0.199,0.32,0.312,0.527c0.112,0.209,0.208,0.424,0.288,0.648s0.128,0.456,0.145,0.696
		c0.016,0.239-0.024,0.472-0.121,0.696c-0.096,0.207-0.231,0.319-0.408,0.336c-0.176,0.016-0.359-0.012-0.551-0.084
		c-0.192-0.072-0.377-0.177-0.553-0.313s-0.32-0.26-0.432-0.371c-0.752-1.104-1.488-2.201-2.208-3.289s-1.444-2.172-2.173-3.252
		c-0.728-1.08-1.475-2.151-2.243-3.216c-0.769-1.063-1.576-2.124-2.425-3.18c-0.224,0.96-0.396,1.912-0.516,2.856
		c-0.119,0.943-0.244,1.904-0.371,2.879c0,0.209-0.068,0.341-0.205,0.396c-0.136,0.057-0.291,0.072-0.467,0.048
		c-0.177-0.024-0.361-0.079-0.553-0.168c-0.191-0.087-0.336-0.18-0.432-0.276c-0.336-0.336-0.597-0.711-0.78-1.127
		c-0.185-0.416-0.276-0.896-0.276-1.44c0.08-0.96,0.208-1.88,0.385-2.761c0.176-0.879,0.319-1.799,0.432-2.76
		c0-0.111-0.036-0.219-0.107-0.324c-0.072-0.104-0.109-0.195-0.109-0.275c0-0.16,0.004-0.332,0.013-0.516
		c0.008-0.184,0.032-0.352,0.071-0.504c0.041-0.152,0.104-0.276,0.193-0.372c0.087-0.096,0.211-0.144,0.371-0.144h0.217
		c0-0.224,0.008-0.388,0.023-0.492s0.08-0.212,0.191-0.324c-0.224,0.112-0.439,0.216-0.647,0.312s-0.424,0.208-0.647,0.336
		c-0.209,0.144-0.433,0.172-0.672,0.084c-0.24-0.088-0.465-0.244-0.672-0.468c-0.209-0.224-0.396-0.492-0.564-0.804
		s-0.288-0.624-0.36-0.936c-0.071-0.312-0.084-0.6-0.036-0.864c0.049-0.264,0.176-0.468,0.385-0.612
		c0.799-0.48,1.715-0.879,2.748-1.2c1.031-0.32,2.071-0.484,3.119-0.492c1.048-0.008,2.044,0.165,2.988,0.516
		c0.943,0.352,1.736,0.952,2.376,1.8c0.384,0.432,0.663,0.9,0.84,1.404s0.248,1,0.216,1.488c-0.031,0.488-0.188,0.944-0.468,1.368
		s-0.685,0.764-1.212,1.02c-0.527,0.32-1.053,0.592-1.572,0.816s-1.052,0.376-1.596,0.456c0.624,1.008,1.275,2.008,1.956,3
		c0.68,0.992,1.372,1.979,2.076,2.964s1.396,1.969,2.075,2.952C185.952,84.633,186.604,85.621,187.229,86.613z M180.628,69.885
		c-0.32-0.128-0.636-0.2-0.948-0.216c-0.312-0.016-0.628-0.024-0.947-0.024c-0.017,0-0.057,0.056-0.12,0.168
		c-0.064,0.112-0.132,0.24-0.204,0.384s-0.141,0.284-0.204,0.42c-0.063,0.136-0.097,0.228-0.097,0.276
		c0.416-0.16,0.836-0.32,1.261-0.48C179.792,70.253,180.212,70.077,180.628,69.885z"/>
	<path d="M193.66,77.926c0.224-0.032,0.451,0.035,0.684,0.203s0.444,0.396,0.637,0.685c0.191,0.288,0.352,0.612,0.479,0.972
		c0.128,0.36,0.204,0.705,0.228,1.032c0.024,0.328-0.016,0.616-0.119,0.864c-0.104,0.248-0.301,0.412-0.588,0.492
		c-1.008,0.224-1.988,0.451-2.94,0.684s-1.86,0.459-2.724,0.684c0.096,0.352,0.156,0.692,0.18,1.021
		c0.023,0.327-0.008,0.604-0.096,0.827c-0.088,0.225-0.229,0.373-0.42,0.445c-0.192,0.071-0.449,0.02-0.769-0.156
		c-0.192-0.08-0.364-0.185-0.516-0.313c-0.152-0.129-0.3-0.256-0.444-0.384s-0.279-0.24-0.408-0.336
		c-0.128-0.097-0.248-0.144-0.359-0.144c-0.448,0.111-0.809,0.195-1.08,0.252c-0.272,0.055-0.568-0.029-0.889-0.252
		c-0.432-0.369-0.796-0.781-1.092-1.236c-0.295-0.457-0.443-0.98-0.443-1.572c0-0.304,0.128-0.556,0.384-0.756
		c0.255-0.2,0.563-0.36,0.924-0.48c0.36-0.119,0.72-0.211,1.08-0.275s0.651-0.12,0.876-0.168c0-1.04-0.032-2.061-0.096-3.061
		c-0.064-1-0.185-2.076-0.36-3.229c0-0.111-0.032-0.219-0.097-0.323c-0.063-0.104-0.096-0.22-0.096-0.349l-0.24-0.264h-0.191
		c-0.336,0-0.676-0.164-1.02-0.492c-0.345-0.327-0.625-0.708-0.84-1.14c-0.217-0.432-0.332-0.872-0.349-1.32
		c-0.016-0.448,0.136-0.792,0.456-1.032c0.672-0.336,1.38-0.64,2.124-0.912c0.744-0.271,1.495-0.54,2.256-0.804
		c0.76-0.264,1.508-0.536,2.244-0.816c0.735-0.28,1.432-0.604,2.088-0.972c0.256-0.112,0.517-0.116,0.78-0.012
		c0.264,0.104,0.516,0.276,0.756,0.516c0.24,0.24,0.447,0.52,0.624,0.84c0.176,0.32,0.3,0.64,0.372,0.96
		c0.072,0.32,0.084,0.608,0.035,0.864c-0.047,0.256-0.184,0.44-0.407,0.552c-0.528,0.4-1.064,0.728-1.608,0.984
		s-1.096,0.484-1.656,0.684c-0.56,0.2-1.127,0.388-1.703,0.564c-0.576,0.176-1.16,0.384-1.752,0.624
		c0.224,0.352,0.396,0.692,0.516,1.02s0.236,0.604,0.348,0.827c0.432-0.159,0.828-0.275,1.188-0.348s0.7-0.067,1.021,0.012
		c0.319,0.081,0.615,0.257,0.887,0.529c0.272,0.271,0.545,0.672,0.816,1.199c0.192,0.592,0.192,1.057,0,1.393
		c-0.191,0.336-0.472,0.596-0.84,0.779c-0.368,0.185-0.776,0.316-1.225,0.396c-0.447,0.08-0.84,0.16-1.176,0.24v1.416
		c0.769-0.256,1.528-0.496,2.28-0.721C192.132,78.397,192.893,78.166,193.66,77.926z"/>
	<path d="M206.379,79.342c0.049,0.111,0.097,0.264,0.145,0.455c0.048,0.192,0.064,0.385,0.048,0.576
		c-0.017,0.192-0.067,0.369-0.155,0.528c-0.089,0.16-0.236,0.272-0.444,0.336c-0.208,0-0.404-0.044-0.589-0.132
		c-0.184-0.088-0.355-0.204-0.516-0.348c-0.16-0.145-0.304-0.301-0.432-0.469c-0.129-0.168-0.24-0.332-0.336-0.492
		c-0.736,0-1.465-0.031-2.184-0.096c-0.721-0.063-1.393-0.096-2.017-0.096c-0.048,0.672-0.12,1.328-0.216,1.968
		s-0.188,1.284-0.275,1.933c-0.089,0.647-0.152,1.303-0.193,1.967c-0.039,0.664-0.02,1.34,0.061,2.029
		c0,0.144-0.004,0.312-0.012,0.504c-0.008,0.191-0.045,0.359-0.108,0.504c-0.063,0.144-0.168,0.243-0.312,0.299
		c-0.145,0.057-0.345,0.028-0.6-0.084c-0.576-0.127-1.001-0.407-1.272-0.84c-0.272-0.432-0.448-0.943-0.528-1.535
		s-0.088-1.236-0.023-1.932c0.063-0.697,0.147-1.381,0.252-2.053c0.104-0.672,0.199-1.292,0.287-1.859
		c0.088-0.568,0.116-1.021,0.084-1.356c-0.239-0.144-0.476-0.235-0.707-0.276c-0.232-0.039-0.465-0.063-0.696-0.072
		c-0.231-0.008-0.46-0.023-0.685-0.047c-0.224-0.024-0.447-0.101-0.672-0.229c-0.256-0.08-0.556-0.271-0.9-0.576
		c-0.344-0.304-0.631-0.644-0.863-1.02s-0.363-0.76-0.396-1.152c-0.031-0.393,0.137-0.716,0.504-0.973
		c0.16-0.159,0.333-0.247,0.517-0.264c0.185-0.016,0.368,0,0.552,0.049c0.184,0.047,0.364,0.115,0.54,0.203
		c0.177,0.088,0.336,0.156,0.479,0.204c0.417,0.208,0.832,0.372,1.248,0.492s0.841,0.236,1.272,0.349
		c0.256-0.672,0.399-1.396,0.433-2.172c0.031-0.776,0.047-1.561,0.047-2.353s0.037-1.568,0.108-2.328
		c0.072-0.76,0.276-1.46,0.612-2.1c0.24-0.224,0.556-0.352,0.947-0.384c0.393-0.032,0.709,0.016,0.949,0.144
		c0.559,0.544,1.035,1.144,1.428,1.8c0.392,0.656,0.735,1.352,1.031,2.088c0.297,0.736,0.564,1.492,0.805,2.268
		c0.24,0.777,0.488,1.545,0.744,2.305s0.543,1.5,0.863,2.22S205.915,78.717,206.379,79.342z M202.396,76.006
		c-0.272-0.608-0.536-1.244-0.792-1.908s-0.608-1.268-1.057-1.813c0,0.096-0.004,0.209-0.012,0.336
		c-0.008,0.129-0.023,0.324-0.048,0.588s-0.06,0.616-0.108,1.057c-0.047,0.439-0.119,1.02-0.215,1.74H202.396z"/>
	<path d="M221.619,82.029c0,0.176-0.016,0.364-0.048,0.564c-0.032,0.199-0.088,0.384-0.168,0.552s-0.192,0.3-0.336,0.396
		s-0.328,0.111-0.552,0.049c-0.225-0.113-0.444-0.261-0.66-0.444c-0.216-0.185-0.408-0.388-0.576-0.612
		c-0.168-0.224-0.304-0.456-0.408-0.695c-0.104-0.24-0.156-0.473-0.156-0.697c-0.224-1.23-0.436-2.42-0.635-3.563
		c-0.201-1.144-0.357-2.34-0.469-3.588c-0.111,0-0.176,0.048-0.191,0.144c-0.017,0.097-0.024,0.201-0.024,0.313
		c-0.063,0.336-0.116,0.668-0.156,0.996s-0.104,0.648-0.192,0.96s-0.207,0.604-0.359,0.876s-0.364,0.52-0.637,0.744
		c-0.224,0.225-0.467,0.287-0.731,0.191c-0.264-0.096-0.516-0.256-0.756-0.479c-0.239-0.224-0.448-0.464-0.624-0.72
		s-0.297-0.44-0.359-0.553c-0.32-0.672-0.593-1.379-0.816-2.123c-0.225-0.744-0.393-1.453-0.504-2.125
		c-0.288,1.089-0.608,2.172-0.961,3.252c-0.352,1.08-0.707,2.164-1.067,3.252c-0.36,1.089-0.712,2.185-1.056,3.289
		c-0.345,1.104-0.66,2.231-0.948,3.383c-0.048,0.225-0.136,0.385-0.265,0.48c-0.127,0.096-0.275,0.145-0.443,0.145
		s-0.348-0.041-0.54-0.121s-0.368-0.176-0.528-0.287c-0.176-0.16-0.34-0.348-0.492-0.564c-0.152-0.216-0.283-0.443-0.396-0.684
		s-0.192-0.484-0.239-0.732c-0.049-0.248-0.049-0.484,0-0.707c0.639-2.496,1.355-5.021,2.147-7.572
		c0.792-2.553,1.716-5.236,2.772-8.052c0.336-0.672,0.734-1.108,1.199-1.308c0.464-0.2,1.032-0.132,1.704,0.204
		c0.224,0.048,0.433,0.164,0.624,0.348c0.191,0.184,0.355,0.393,0.492,0.624c0.136,0.232,0.244,0.48,0.324,0.744
		s0.119,0.508,0.119,0.732v2.472v-0.456c0.225-0.672,0.5-1.38,0.828-2.124s0.725-1.452,1.188-2.124
		c0.112-0.224,0.252-0.344,0.42-0.36c0.168-0.016,0.344,0.032,0.528,0.144c0.184,0.112,0.367,0.268,0.552,0.468
		c0.184,0.2,0.356,0.412,0.516,0.636c0.16,0.224,0.3,0.44,0.421,0.648c0.119,0.208,0.195,0.368,0.228,0.48
		c0.336,2.352,0.68,4.648,1.032,6.887C220.771,77.549,221.172,79.789,221.619,82.029z"/>
	<path d="M225.459,80.997c0,0.112,0.036,0.257,0.107,0.433c0.072,0.176,0.109,0.32,0.109,0.432c0,0.112-0.037,0.184-0.109,0.216
		c-0.071,0.032-0.107,0.104-0.107,0.216c0,0.129-0.044,0.28-0.132,0.457c-0.089,0.176-0.188,0.319-0.3,0.432h-0.672
		c-0.32-0.112-0.564-0.232-0.732-0.36s-0.364-0.304-0.588-0.528c0-0.111-0.072-0.256-0.217-0.432
		c-0.143-0.176-0.215-0.32-0.215-0.432c0-0.112-0.037-0.221-0.108-0.324c-0.072-0.104-0.108-0.22-0.108-0.348v-0.865
		c0-0.111,0.045-0.219,0.133-0.323s0.188-0.22,0.299-0.349h0.217h0.456c0.048-0.047,0.112-0.063,0.192-0.047
		s0.168,0.052,0.264,0.107c0.096,0.057,0.195,0.124,0.3,0.204s0.212,0.144,0.324,0.192c0.176,0.08,0.312,0.172,0.407,0.275
		c0.097,0.104,0.172,0.217,0.229,0.336c0.057,0.12,0.1,0.24,0.132,0.36S225.411,80.886,225.459,80.997z"/>
	<path d="M231.771,80.997c0,0.112,0.035,0.257,0.107,0.433s0.108,0.32,0.108,0.432c0,0.112-0.036,0.184-0.108,0.216
		s-0.107,0.104-0.107,0.216c0,0.129-0.045,0.28-0.133,0.457c-0.088,0.176-0.188,0.319-0.3,0.432h-0.672
		c-0.32-0.112-0.563-0.232-0.731-0.36s-0.365-0.304-0.588-0.528c0-0.111-0.072-0.256-0.217-0.432
		c-0.144-0.176-0.216-0.32-0.216-0.432c0-0.112-0.036-0.221-0.108-0.324s-0.107-0.22-0.107-0.348v-0.865
		c0-0.111,0.044-0.219,0.132-0.323s0.188-0.22,0.3-0.349h0.217h0.455c0.049-0.047,0.112-0.063,0.192-0.047s0.168,0.052,0.265,0.107
		c0.096,0.057,0.195,0.124,0.299,0.204c0.104,0.08,0.213,0.144,0.324,0.192c0.176,0.08,0.313,0.172,0.408,0.275
		c0.096,0.104,0.172,0.217,0.229,0.336c0.056,0.12,0.1,0.24,0.131,0.36C231.684,80.77,231.723,80.886,231.771,80.997z"/>
	<path d="M238.082,80.997c0,0.112,0.037,0.257,0.108,0.433c0.072,0.176,0.108,0.32,0.108,0.432c0,0.112-0.036,0.184-0.108,0.216
		c-0.071,0.032-0.108,0.104-0.108,0.216c0,0.129-0.043,0.28-0.131,0.457c-0.089,0.176-0.189,0.319-0.301,0.432h-0.672
		c-0.32-0.112-0.564-0.232-0.732-0.36s-0.363-0.304-0.588-0.528c0-0.111-0.072-0.256-0.216-0.432s-0.216-0.32-0.216-0.432
		c0-0.112-0.036-0.221-0.107-0.324c-0.072-0.104-0.108-0.22-0.108-0.348v-0.865c0-0.111,0.044-0.219,0.132-0.323
		s0.188-0.22,0.3-0.349h0.216h0.457c0.047-0.047,0.111-0.063,0.191-0.047s0.168,0.052,0.264,0.107
		c0.096,0.057,0.196,0.124,0.301,0.204c0.104,0.08,0.211,0.144,0.324,0.192c0.176,0.08,0.312,0.172,0.407,0.275
		c0.097,0.104,0.172,0.217,0.228,0.336c0.057,0.12,0.1,0.24,0.133,0.36C237.994,80.77,238.035,80.886,238.082,80.997z"/>
</g>
</svg>
